<?xml version="1.0" standalone="no"?><!DOCTYPE svg PUBLIC "-//W3C//DTD SVG 1.1//EN" "http://www.w3.org/Graphics/SVG/1.1/DTD/svg11.dtd" ><svg xmlns="http://www.w3.org/2000/svg"><metadata></metadata><defs><font id="1.001;ADBO;SourceHanSerifCN-Heavy;ADOBE" horiz-adv-x="2099"><font-face font-family="Source Han Serif CN Heavy" font-weight="900" font-stretch="normal" units-per-em="2048" panose-1="2 2 9 0 0 0 0 0 0 0" ascent="2357" descent="-586" x-height="0" bbox="-256 -555 2048 1802" underline-thickness="102" underline-position="-409" unicode-range="U+0022-fa08" /><missing-glyph horiz-adv-x="2048" d="M205 -246 l0 2048 l1638 0 l0 -2048 l-1638 0 ZM1024 862 l651 838 l-1302 0 l651 -838 ZM1090 778 l651 -837 l0 1675 l-651 -838 ZM373 -143 l1302 0 l-651 837 l-651 -837 ZM307 1616 l0 -1675 l651 837 l-651 838 Z" /><glyph glyph-name="quotedbl" unicode="&quot;" d="M260 1698 q75 0 117.5 -43 q42.5 -43 42.5 -127 q0 -77 -23 -170 q-23 -93 -37 -158 l-65 -260 l-68 0 l-65 260 q-9 43 -24 101 q-15 58 -26.5 118 q-11.5 60 -11.5 109 q0 84 42.5 127 q42.5 43 117.5 43 ZM727 1698 q74 0 117 -43 q43 -43 43 -127 q0 -51 -11.5 -111 q-11.5 -60 -26 -117 q-14.5 -57 -24.5 -100 l-63 -260 l-68 0 l-65 260 q-9 43 -24.5 101 q-15.5 58 -27.5 118 q-12 60 -12 109 q0 84 43.5 127 q43.5 43 118.5 43 Z" /><glyph glyph-name="dollar" unicode="$" d="M680 565 l0 -514 q87 25 138.5 92 q51.5 67 51.5 156 q0 101 -43 159 q-43 58 -147 107 ZM596 930 l0 489 q-86 -23 -137 -88 q-51 -65 -51 -157 q0 -94 46.5 -147.5 q46.5 -53.5 141.5 -96.5 ZM694 889 l25 -10 q159 -64 253 -132 q94 -68 135.5 -152 q41.5 -84 41.5 -196 q0 -115 -57.5 -207 q-57.5 -92 -163 -150 q-105.5 -58 -248.5 -73 l0 -235 l-94 0 l0 231 q-220 2 -338 87 q-118 85 -129 239 q18 54 52.5 76 q34.5 22 74.5 22 q60 0 95 -31.5 q35 -31.5 44 -109.5 l25 -187 q38 -10 81 -16 q43 -6 95 -6 l0 569 l-49 21 q-194 80 -296 184.5 q-102 104.5 -102 278.5 q0 167 121.5 280.5 q121.5 113.5 335.5 128.5 l0 215 l98 0 l0 -213 q188 -9 298.5 -92.5 q110.5 -83.5 121.5 -224.5 q-11 -56 -45 -81.5 q-34 -25.5 -74 -25.5 q-52 0 -99 32.5 q-47 32.5 -62 133.5 l-33 172 q-52 13 -107 13 l0 -541 Z" /><glyph glyph-name="percent" unicode="%" d="M524 -72 l-69 47 l1063 1559 l67 -47 l-1061 -1559 ZM342 1030 q0 -167 18.5 -258 q18.5 -91 49 -126.5 q30.5 -35.5 67.5 -35.5 q38 0 70.5 36 q32.5 36 53 127 q20.5 91 20.5 257 q0 167 -20.5 258 q-20.5 91 -53 126.5 q-32.5 35.5 -70.5 35.5 q-37 0 -67.5 -35.5 q-30.5 -35.5 -49 -126.5 q-18.5 -91 -18.5 -258 ZM477 1503 q92 0 171 -48 q79 -48 127 -152 q48 -104 48 -273 q0 -169 -48 -273 q-48 -104 -127 -152 q-79 -48 -171 -48 q-90 0 -168 48 q-78 48 -126 152 q-48 104 -48 273 q0 169 48 273 q48 104 126 152 q78 48 168 48 ZM1411 453 q0 -167 18.5 -258 q18.5 -91 49.5 -126.5 q31 -35.5 69 -35.5 q37 0 69.5 35.5 q32.5 35.5 52.5 127 q20 91.5 20 257.5 q0 167 -20 258 q-20 91 -52.5 126 q-32.5 35 -69.5 35 q-38 0 -69 -35 q-31 -35 -49.5 -126 q-18.5 -91 -18.5 -258 ZM1548 926 q91 0 170 -48 q79 -48 127.5 -152 q48.5 -104 48.5 -273 q0 -169 -48.5 -273.5 q-48.5 -104.5 -127.5 -152 q-79 -47.5 -170 -47.5 q-91 0 -169.5 47.5 q-78.5 47.5 -126.5 152 q-48 104.5 -48 273.5 q0 169 48 273 q48 104 126.5 152 q78.5 48 169.5 48 Z" /><glyph glyph-name="quotesingle" unicode="&#39;" d="M260 1698 q75 0 117.5 -43 q42.5 -43 42.5 -127 q0 -77 -23 -170 q-23 -93 -37 -158 l-65 -260 l-68 0 l-65 260 q-9 43 -24 101 q-15 58 -26.5 118 q-11.5 60 -11.5 109 q0 84 42.5 127 q42.5 43 117.5 43 Z" /><glyph glyph-name="parenleft" unicode="(" d="M422 645 q0 -193 32.5 -358 q32.5 -165 108.5 -320.5 q76 -155.5 205 -320.5 l-47 -45 q-264 218 -404.5 466.5 q-140.5 248.5 -140.5 577.5 q0 329 140.5 579.5 q140.5 250.5 404.5 465.5 l47 -45 q-136 -169 -211.5 -324.5 q-75.5 -155.5 -105 -318.5 q-29.5 -163 -29.5 -357 Z" /><glyph glyph-name="parenright" unicode=")" d="M434 645 q0 194 -32.5 359 q-32.5 165 -108.5 320.5 q-76 155.5 -205 320.5 l47 45 q264 -219 404.5 -467.5 q140.5 -248.5 140.5 -577.5 q0 -329 -140.5 -580 q-140.5 -251 -404.5 -464 l-47 45 q136 169 211.5 324 q75.5 155 105 318.5 q29.5 163.5 29.5 356.5 Z" /><glyph glyph-name="comma" unicode="," d="M385 -70 l-102 56 q-66 35 -93.5 81 q-27.5 46 -27.5 91 q0 76 53 128 q53 52 133 52 q43 0 80.5 -12 q37.5 -12 73.5 -45 q18 -47 25.5 -84.5 q7.5 -37.5 7.5 -87.5 q0 -148 -65.5 -263 q-65.5 -115 -165.5 -193 q-100 -78 -204 -114 l-24 60 q126 67 200.5 143 q74.5 76 108.5 188 Z" /><glyph glyph-name="cid00014" unicode="-­&#x2011;" d="M92 512 l0 150 l596 0 l0 -150 l-596 0 Z" /><glyph glyph-name="period" unicode="." d="M348 -33 q-78 0 -133 54 q-55 54 -55 131 q0 75 55 130.5 q55 55.5 133 55.5 q78 0 133.5 -55.5 q55.5 -55.5 55.5 -130.5 q0 -77 -55.5 -131 q-55.5 -54 -133.5 -54 Z" /><glyph glyph-name="slash" unicode="/" d="M37 -371 l620 2018 l177 0 l-621 -2018 l-176 0 Z" /><glyph glyph-name="zero" unicode="0" d="M401 768 q0 -217 17.5 -359 q17.5 -142 48 -223.5 q30.5 -81.5 70.5 -115 q40 -33.5 86 -33.5 q45 0 85.5 34 q40.5 34 72 115.5 q31.5 81.5 49.5 223.5 q18 142 18 358 q0 214 -18 355 q-18 141 -49.5 222 q-31.5 81 -72 114.5 q-40.5 33.5 -85.5 33.5 q-46 0 -86 -33.5 q-40 -33.5 -70.5 -114 q-30.5 -80.5 -48 -221.5 q-17.5 -141 -17.5 -356 ZM623 1565 q141 0 263 -83.5 q122 -83.5 196.5 -259.5 q74.5 -176 74.5 -454 q0 -280 -74.5 -457 q-74.5 -177 -196.5 -261.5 q-122 -84.5 -263 -84.5 q-143 0 -264 84.5 q-121 84.5 -195 261.5 q-74 177 -74 457 q0 278 74 454 q74 176 195 259.5 q121 83.5 264 83.5 Z" /><glyph glyph-name="one" unicode="1" d="M811 100 l274 -37 l0 -63 l-911 0 l0 63 l293 37 q1 97 2.5 194.5 q1.5 97.5 1.5 190.5 l0 891 l-242 -22 l0 76 l555 124 l31 -20 l-8 -334 l0 -715 q0 -93 1 -190.5 q1 -97.5 3 -194.5 Z" /><glyph glyph-name="two" unicode="2" d="M289 252 l858 0 l0 -252 l-1026 0 l0 184 q89 97 173.5 192 q84.5 95 160.5 181 q111 126 182.5 221.5 q71.5 95.5 106 186 q34.5 90.5 34.5 200.5 q0 152 -67.5 241 q-67.5 89 -186.5 89 q-18 0 -38 -2 q-20 -2 -40 -6 l-45 -203 q-16 -103 -61 -136.5 q-45 -33.5 -92 -33.5 q-45 0 -80 23 q-35 23 -53 61 q9 118 82 200 q73 82 189 124.5 q116 42.5 253 42.5 q162 0 266.5 -54.5 q104.5 -54.5 155.5 -149 q51 -94.5 51 -216.5 q0 -110 -63.5 -208 q-63.5 -98 -190 -209.5 q-126.5 -111.5 -315.5 -260.5 q-49 -40 -116.5 -96 q-67.5 -56 -137.5 -119 Z" /><glyph glyph-name="three" unicode="3" d="M471 1489 l-39 -199 q-14 -78 -57 -108.5 q-43 -30.5 -96 -30.5 q-79 0 -115 66 q3 121 68.5 198 q65.5 77 171 113.5 q105.5 36.5 229.5 36.5 q244 0 361.5 -102.5 q117.5 -102.5 117.5 -260.5 q0 -141 -89 -246.5 q-89 -105.5 -302 -148.5 q243 -37 339.5 -148 q96.5 -111 96.5 -272 q0 -125 -68 -220 q-68 -95 -194 -148.5 q-126 -53.5 -301 -53.5 q-234 0 -357 96.5 q-123 96.5 -137 268.5 q16 49 51.5 70.5 q35.5 21.5 75.5 21.5 q62 0 100 -36.5 q38 -36.5 52 -139.5 l33 -201 q32 -8 75 -8 q160 0 245 88 q85 88 85 260 q0 181 -82.5 276 q-82.5 95 -238.5 95 l-80 0 l0 80 l69 0 q137 0 219 85.5 q82 85.5 82 268.5 q0 152 -64.5 228.5 q-64.5 76.5 -182.5 76.5 q-31 0 -68 -6 Z" /><glyph glyph-name="four" unicode="4" d="M186 596 l484 0 l0 723 l-484 -723 ZM1186 596 l0 -213 l-225 0 l0 -383 l-291 0 l0 383 l-598 0 l0 172 l661 981 l228 0 l0 -940 l225 0 Z" /><glyph glyph-name="five" unicode="5" d="M365 1276 l-29 -389 q66 20 134.5 28.5 q68.5 8.5 141.5 8.5 q260 0 409.5 -122 q149.5 -122 149.5 -349 q0 -158 -78 -267 q-78 -109 -214 -165 q-136 -56 -310 -56 q-215 0 -340 98.5 q-125 98.5 -137 266.5 q19 46 55.5 69 q36.5 23 77.5 23 q63 0 99 -37.5 q36 -37.5 47 -128.5 l28 -203 q44 -16 113 -16 q138 0 223.5 103 q85.5 103 85.5 296 q0 178 -84 275.5 q-84 97.5 -225 97.5 q-118 0 -219 -35 l-60 43 l50 713 l833 0 l0 -254 l-751 0 Z" /><glyph glyph-name="six" unicode="6" d="M643 37 q85 0 142 94 q57 94 57 309 q0 381 -217 381 q-56 0 -111 -15 q-55 -15 -102 -58 q-2 -22 -3 -44 q-1 -22 -1 -45 q0 -325 65.5 -473.5 q65.5 -148.5 169.5 -148.5 ZM1069 1565 l12 -52 q-287 -67 -456 -248.5 q-169 -181.5 -207 -447.5 q135 123 334 123 q132 0 225.5 -59 q93.5 -59 142.5 -163.5 q49 -104.5 49 -240.5 q0 -149 -63 -264.5 q-63 -115.5 -181 -181.5 q-118 -66 -282 -66 q-174 0 -302 77.5 q-128 77.5 -197.5 223 q-69.5 145.5 -69.5 348.5 q0 185 72 348 q72 163 205 291.5 q133 128.5 315.5 210 q182.5 81.5 402.5 101.5 Z" /><glyph glyph-name="seven" unicode="7" d="M121 1530 l981 0 l0 -158 l-533 -1372 l-270 0 l-20 20 l688 1256 l-846 0 l0 254 Z" /><glyph glyph-name="eight" unicode="8" d="M492 678 l-3 2 q-61 -71 -88.5 -146 q-27.5 -75 -27.5 -174 q0 -165 65.5 -244 q65.5 -79 182.5 -79 q110 0 169.5 64 q59.5 64 59.5 180 q0 76 -32 144 q-32 68 -110 130 q-78 62 -216 123 ZM627 1493 q-86 0 -152.5 -63 q-66.5 -63 -66.5 -170 q0 -64 26 -128 q26 -64 98 -127 q72 -63 209 -124 q95 144 95 340 q0 121 -55.5 196.5 q-55.5 75.5 -153.5 75.5 ZM786 860 q183 -87 271 -199 q88 -112 88 -258 q0 -198 -141.5 -318 q-141.5 -120 -411.5 -120 q-247 0 -367.5 101.5 q-120.5 101.5 -120.5 255.5 q0 132 87 226 q87 94 251 152 q-155 77 -231 191.5 q-76 114.5 -76 255.5 q0 127 65 221 q65 94 177.5 145.5 q112.5 51.5 255.5 51.5 q157 0 259 -49 q102 -49 152 -129.5 q50 -80.5 50 -176.5 q0 -101 -71 -190 q-71 -89 -237 -160 Z" /><glyph glyph-name="nine" unicode="9" d="M666 688 q88 0 157 51 q13 102 13 217 q0 203 -28 321 q-28 118 -78 168 q-50 50 -116 50 q-86 0 -149.5 -95.5 q-63.5 -95.5 -63.5 -307.5 q0 -189 71 -296.5 q71 -107.5 194 -107.5 ZM229 -41 l-10 57 q263 91 406.5 249.5 q143.5 158.5 187.5 412.5 q-49 -37 -120 -60.5 q-71 -23.5 -158 -23.5 q-135 0 -239 53 q-104 53 -163 154.5 q-59 101.5 -59 247.5 q1 171 75 285.5 q74 114.5 195.5 172.5 q121.5 58 265.5 58 q266 0 412.5 -173 q146.5 -173 146.5 -479 q0 -245 -117.5 -442.5 q-117.5 -197.5 -329 -329.5 q-211.5 -132 -493.5 -182 Z" /><glyph glyph-name="colon" unicode=":" d="M348 788 q-78 0 -133 54 q-55 54 -55 131 q0 77 55 131.5 q55 54.5 133 54.5 q78 0 133.5 -54.5 q55.5 -54.5 55.5 -131.5 q0 -77 -55.5 -131 q-55.5 -54 -133.5 -54 ZM348 -33 q-78 0 -133 54 q-55 54 -55 131 q0 75 55 130.5 q55 55.5 133 55.5 q78 0 133.5 -55.5 q55.5 -55.5 55.5 -130.5 q0 -77 -55.5 -131 q-55.5 -54 -133.5 -54 Z" /><glyph glyph-name="semicolon" unicode=";" d="M348 788 q-78 0 -133 54 q-55 54 -55 131 q0 77 55 131.5 q55 54.5 133 54.5 q78 0 133.5 -54.5 q55.5 -54.5 55.5 -131.5 q0 -77 -55.5 -131 q-55.5 -54 -133.5 -54 ZM385 -70 l-102 56 q-66 35 -93.5 81 q-27.5 46 -27.5 91 q0 76 53 128 q53 52 133 52 q43 0 80.5 -12 q37.5 -12 73.5 -45 q18 -47 25.5 -84.5 q7.5 -37.5 7.5 -87.5 q0 -148 -65.5 -263 q-65.5 -115 -165.5 -193 q-100 -78 -204 -114 l-24 60 q126 67 200.5 143 q74.5 76 108.5 188 Z" /><glyph glyph-name="less" unicode="&lt;" d="M1128 1214 l-903 -460 l903 -457 l-51 -100 l-983 518 l0 82 l983 514 l51 -97 Z" /><glyph glyph-name="equal" unicode="=" d="M1186 453 l-1112 0 l0 112 l1112 0 l0 -112 ZM1186 940 l-1112 0 l0 113 l1112 0 l0 -113 Z" /><glyph glyph-name="greater" unicode="&gt;" d="M184 1313 l981 -516 l0 -82 l-981 -516 l-51 98 l901 459 l-901 458 l51 99 Z" /><glyph glyph-name="B" unicode="b" d="M618 76 l105 0 q166 0 259 87.5 q93 87.5 93 256.5 q0 178 -89 261 q-89 83 -275 83 l-99 0 q0 -183 1 -353.5 q1 -170.5 5 -334.5 ZM715 1452 l-97 0 q-4 -150 -5 -303 q-1 -153 -1 -311 l80 0 q158 0 237 84.5 q79 84.5 79 236.5 q0 140 -69 216.5 q-69 76.5 -224 76.5 ZM84 1530 l721 0 q196 0 313.5 -46.5 q117.5 -46.5 169 -127.5 q51.5 -81 51.5 -185 q0 -77 -38.5 -147.5 q-38.5 -70.5 -132 -124 q-93.5 -53.5 -257.5 -82.5 q277 -27 398 -129 q121 -102 121 -262 q0 -75 -32 -150.5 q-32 -75.5 -109.5 -138 q-77.5 -62.5 -212.5 -100 q-135 -37.5 -343 -37.5 l-649 0 l0 70 l184 18 q5 161 5.5 326.5 q0.5 165.5 0.5 330.5 l0 74 q0 157 -0.5 313.5 q-0.5 156.5 -5.5 311.5 l-184 16 l0 70 Z" /><glyph glyph-name="E" unicode="e" d="M1294 424 l4 -424 l-1214 0 l0 70 l184 18 q5 155 5.5 313 q0.5 158 0.5 318 l0 90 q0 160 -0.5 318.5 q-0.5 158.5 -5.5 316.5 l-184 16 l0 70 l1171 0 l-2 -408 l-118 0 l-95 328 l-415 0 q-3 -154 -3.5 -312 q-0.5 -158 -0.5 -321 l278 0 l31 227 l102 0 l0 -518 l-102 0 l-29 217 l-280 0 l0 -6 q0 -170 0.5 -333.5 q0.5 -163.5 3.5 -323.5 l460 0 l95 344 l114 0 Z" /><glyph glyph-name="H" unicode="h" d="M1698 1460 l-180 -16 q-4 -157 -4.5 -316 q-0.5 -159 -0.5 -319 l0 -90 q0 -157 0.5 -315 q0.5 -158 4.5 -316 l180 -18 l0 -70 l-709 0 l0 70 l172 18 q5 152 5.5 313.5 q0.5 161.5 0.5 337.5 l-551 0 q0 -173 1 -334.5 q1 -161.5 6 -318.5 l170 -16 l0 -70 l-709 0 l0 70 l182 18 q2 155 2 313 q0 158 0 318 l0 90 q0 160 0 318 q0 158 -2 315 l-182 18 l0 70 l709 0 l0 -70 l-170 -16 q-5 -154 -6 -311.5 q-1 -157.5 -1 -315.5 l551 0 q0 157 -0.5 314.5 q-0.5 157.5 -5.5 312.5 l-172 16 l0 70 l709 0 l0 -70 Z" /><glyph glyph-name="I" unicode="i" d="M807 1460 l-182 -16 q-3 -157 -3.5 -316 q-0.5 -159 -0.5 -319 l0 -88 q0 -158 0.5 -316.5 q0.5 -158.5 3.5 -316.5 l182 -18 l0 -70 l-723 0 l0 70 l184 18 q5 155 5.5 313 q0.5 158 0.5 318 l0 90 q0 160 -0.5 318.5 q-0.5 158.5 -5.5 316.5 l-184 16 l0 70 l723 0 l0 -70 Z" /><glyph glyph-name="L" unicode="l" d="M1264 459 l4 -459 l-1184 0 l2 70 l182 18 q5 154 5.5 303.5 q0.5 149.5 0.5 272.5 l0 145 q0 160 -0.5 318.5 q-0.5 158.5 -5.5 316.5 l-184 16 l0 70 l741 0 l0 -70 l-200 -18 q-3 -155 -3.5 -308.5 q-0.5 -153.5 -0.5 -291.5 l0 -133 q0 -152 0.5 -310.5 q0.5 -158.5 3.5 -318.5 l426 0 l102 379 l111 0 Z" /><glyph glyph-name="M" unicode="m" d="M1993 1460 l-185 -16 q-4 -158 -5 -316.5 q-1 -158.5 -1 -318.5 l0 -90 q0 -160 1 -318.5 q1 -158.5 5 -312.5 l183 -18 l0 -70 l-719 0 l0 70 l180 18 q5 157 4 307 q-1 150 2 275 l8 659 l-489 -1329 l-109 0 l-503 1319 q2 -107 3.5 -222.5 q1.5 -115.5 3 -218 q1.5 -102.5 1.5 -167.5 l0 -611 l227 -30 l0 -70 l-553 0 l0 70 l225 28 l9 1336 l-218 26 l0 70 l566 0 l418 -1088 l405 1088 l541 0 l0 -70 Z" /><glyph glyph-name="N" unicode="n" d="M1622 1530 l0 -70 l-188 -26 l-15 -1438 l-180 0 l-903 1274 l12 -1170 l275 -30 l0 -70 l-570 0 l0 70 l189 28 l12 1288 l-39 58 l-145 16 l0 70 l493 0 l776 -1073 l-10 975 l-272 28 l0 70 l565 0 Z" /><glyph glyph-name="S" unicode="s" d="M647 958 l109 -49 q152 -68 244 -137 q92 -69 133 -153.5 q41 -84.5 41 -200.5 q0 -204 -152 -331.5 q-152 -127.5 -440 -127.5 q-126 0 -255.5 31.5 q-129.5 31.5 -222.5 91.5 l15 352 l119 0 l108 -356 q46 -17 94 -24 q48 -7 107 -7 q152 0 233.5 68 q81.5 68 81.5 188 q0 105 -50 168 q-50 63 -173 117 l-98 43 q-206 92 -313 206.5 q-107 114.5 -107 299.5 q0 138 69.5 235 q69.5 97 195 148 q125.5 51 292.5 51 q120 0 225.5 -31 q105.5 -31 190.5 -86 l-19 -334 l-119 0 l-104 340 q-31 14 -63 19.5 q-32 5.5 -70 5.5 q-134 0 -213.5 -64.5 q-79.5 -64.5 -79.5 -179.5 q0 -106 57 -169.5 q57 -63.5 164 -113.5 Z" /><glyph glyph-name="T" unicode="t" d="M1192 1450 l-285 0 q-3 -158 -3.5 -318 q-0.5 -160 -0.5 -323 l0 -88 q0 -157 0.5 -315.5 q0.5 -158.5 3.5 -315.5 l209 -20 l0 -70 l-770 0 l0 70 l207 20 q3 154 3.5 311.5 q0.5 157.5 0.5 317.5 l0 90 q0 161 -0.5 322 q-0.5 161 -3.5 319 l-283 0 l-102 -358 l-121 0 l8 438 l1352 0 l8 -438 l-119 0 l-104 358 Z" /><glyph glyph-name="bracketleft" unicode="[" d="M745 1581 l-253 -22 q-4 -157 -4.5 -316.5 q-0.5 -159.5 -0.5 -318.5 l0 -557 q0 -159 0.5 -318 q0.5 -159 4.5 -317 l253 -23 l0 -78 l-514 0 q7 180 8 365 q1 185 1 371 l0 557 q0 182 -1 367 q-1 185 -8 368 l514 0 l0 -78 Z" /><glyph glyph-name="bracketright" unicode="]" d="M555 924 l0 -557 q0 -183 1 -368 q1 -185 5 -368 l-512 0 l0 78 l252 23 q5 156 5.5 315.5 q0.5 159.5 0.5 319.5 l0 557 q0 158 -0.5 317 q-0.5 159 -5.5 318 l-252 22 l0 78 l512 0 q-4 -180 -5 -364.5 q-1 -184.5 -1 -370.5 Z" /><glyph glyph-name="a" unicode="a" d="M717 199 l0 426 q-36 -10 -65 -18.5 q-29 -8.5 -48 -16.5 q-107 -45 -163 -119 q-56 -74 -56 -186 q0 -92 40.5 -136.5 q40.5 -44.5 113.5 -44.5 q41 0 81 22 q40 22 97 73 ZM279 1032 l32 12 l-32 -12 ZM1192 154 l35 -29 q-39 -85 -100.5 -122.5 q-61.5 -37.5 -159.5 -37.5 q-102 0 -160.5 47.5 q-58.5 47.5 -81.5 130.5 q-52 -57 -100 -97 q-48 -40 -106 -60.5 q-58 -20.5 -140 -20.5 q-132 0 -215.5 75 q-83.5 75 -83.5 204 q0 93 40.5 161 q40.5 68 135.5 121 q95 53 260 101 q43 12 95 25.5 q52 13.5 106 27.5 l0 125 q0 160 -44 218 q-44 58 -161 58 q-45 0 -86 -8 l-14 -145 q-5 -105 -50.5 -150 q-45.5 -45 -103.5 -45 q-116 0 -141 105 q12 144 143 229.5 q131 85.5 369 85.5 q218 0 312.5 -99.5 q94.5 -99.5 94.5 -322.5 l0 -551 q0 -58 17.5 -81 q17.5 -23 46.5 -23 q23 0 43 16 q20 16 49 62 Z" /><glyph glyph-name="b" unicode="b" d="M543 950 l0 -782 q40 -31 83 -44 q43 -13 89 -13 q71 0 133.5 37 q62.5 37 100.5 136.5 q38 99.5 38 286.5 q0 240 -75.5 340.5 q-75.5 100.5 -190.5 100.5 q-48 0 -90 -11 q-42 -11 -88 -51 ZM539 1343 l0 -333 q75 73 163 108 q88 35 183 35 q128 0 231 -67.5 q103 -67.5 163 -199 q60 -131.5 60 -323.5 q0 -169 -59.5 -304.5 q-59.5 -135.5 -167 -214.5 q-107.5 -79 -252.5 -79 q-92 0 -175.5 35 q-83.5 35 -149.5 111 l-43 -142 l-418 31 l0 63 l135 13 q1 59 2 133 q1 74 1.5 147.5 q0.5 73.5 0.5 130.5 l0 1049 l-150 14 l0 54 l453 88 l29 -19 l-6 -330 Z" /><glyph glyph-name="c" unicode="c" d="M813 920 l-20 157 q-16 2 -30 3 q-14 1 -28 1 q-136 0 -225.5 -128 q-89.5 -128 -89.5 -363 q0 -229 102 -354 q102 -125 266 -125 q90 0 158 38 q68 38 123 107 l41 -27 q-71 -127 -185.5 -195.5 q-114.5 -68.5 -281.5 -68.5 q-156 0 -285.5 68.5 q-129.5 68.5 -207.5 201 q-78 132.5 -78 322.5 q0 191 83.5 324 q83.5 133 224.5 202.5 q141 69.5 312 69.5 q116 0 206.5 -43 q90.5 -43 146.5 -116.5 q56 -73.5 69 -166.5 q-30 -108 -135 -108 q-65 0 -112.5 43.5 q-47.5 43.5 -53.5 157.5 Z" /><glyph glyph-name="d" unicode="d" d="M860 164 l0 794 q-37 30 -75 42 q-38 12 -76 12 q-78 0 -143 -40.5 q-65 -40.5 -103.5 -138.5 q-38.5 -98 -38.5 -270 q0 -167 36 -266 q36 -99 99 -142.5 q63 -43.5 141 -43.5 q43 0 83 12 q40 12 77 41 ZM1190 72 l133 -9 l0 -63 l-438 -25 l-17 127 q-64 -64 -143.5 -100.5 q-79.5 -36.5 -173.5 -36.5 q-134 0 -242.5 69.5 q-108.5 69.5 -172.5 200.5 q-64 131 -64 316 q0 192 68.5 326.5 q68.5 134.5 183.5 205 q115 70.5 256 70.5 q174 0 292 -139 l0 520 l-167 16 l0 54 l464 88 l29 -19 l-8 -327 l0 -1274 Z" /><glyph glyph-name="e" unicode="e" d="M422 637 l278 -2 q73 0 97 39.5 q24 39.5 24 134.5 q0 134 -52.5 203 q-52.5 69 -133.5 69 q-85 0 -146 -103 q-61 -103 -67 -341 ZM1077 266 l39 -24 q-63 -132 -181.5 -204.5 q-118.5 -72.5 -275.5 -72.5 q-169 0 -301.5 70 q-132.5 70 -209 203.5 q-76.5 133.5 -76.5 324.5 q0 145 49.5 255 q49.5 110 133.5 184.5 q84 74.5 188.5 112.5 q104.5 38 213.5 38 q154 0 259.5 -62.5 q105.5 -62.5 159.5 -168.5 q54 -106 54 -236 q0 -38 -2 -67 q-2 -29 -10 -58 l-696 0 q5 -160 53.5 -259 q48.5 -99 127.5 -145 q79 -46 175 -46 q108 0 178.5 42.5 q70.5 42.5 120.5 112.5 Z" /><glyph glyph-name="f" unicode="f" d="M53 1100 l164 18 q19 175 71 279 q52 104 120 170 q87 80 181.5 113.5 q94.5 33.5 190.5 33.5 q92 0 167 -34 q75 -34 95 -117 q0 -60 -38 -100 q-38 -40 -109 -40 q-60 0 -107.5 34 q-47.5 34 -87.5 120 l-32 63 q-33 -19 -47 -43 q-53 -76 -69.5 -190 q-16.5 -114 -10.5 -289 l266 0 l0 -84 l-262 0 l0 -547 q0 -201 6 -407 l186 -17 l0 -63 l-669 0 l0 63 l141 13 q1 103 2.5 206 q1.5 103 1.5 205 l0 547 l-160 0 l0 66 Z" /><glyph glyph-name="g" unicode="g" d="M569 453 q88 0 135.5 86 q47.5 86 47.5 235 q0 151 -48 234.5 q-48 83.5 -133 83.5 q-86 0 -133 -84.5 q-47 -84.5 -47 -233.5 q0 -149 44.5 -235 q44.5 -86 133.5 -86 ZM762 -72 l-227 0 q-91 0 -143 4.5 q-52 4.5 -101 18.5 q-26 -34 -38.5 -70.5 q-12.5 -36.5 -12.5 -87.5 q0 -112 79.5 -172.5 q79.5 -60.5 219.5 -60.5 q202 0 301.5 56.5 q99.5 56.5 99.5 145.5 q0 66 -40 116 q-40 50 -138 50 ZM1221 1130 l0 -159 l-248 26 q69 -90 69 -223 q0 -107 -51.5 -194.5 q-51.5 -87.5 -156.5 -139 q-105 -51.5 -265 -51.5 q-73 0 -136 12 q-63 12 -114 33 q-16 -27 -25 -55 q-9 -28 -9 -62 q0 -56 37.5 -85 q37.5 -29 123.5 -29 l302 0 q164 0 263 -39.5 q99 -39.5 143 -109.5 q44 -70 44 -163 q0 -114 -74.5 -210 q-74.5 -96 -221 -153.5 q-146.5 -57.5 -361.5 -57.5 q-187 0 -294.5 38.5 q-107.5 38.5 -153.5 101.5 q-46 63 -46 138 q0 68 51 125.5 q51 57.5 154 97.5 q-68 31 -109 75.5 q-41 44.5 -41 121.5 q0 77 42 141 q42 64 135 146 q-94 50 -139.5 134 q-45.5 84 -45.5 185 q0 164 117.5 271.5 q117.5 107.5 359.5 107.5 q119 0 205.5 -27.5 q86.5 -27.5 145.5 -76.5 l262 104 l37 -23 Z" /><glyph glyph-name="h" unicode="h" d="M1257 74 l123 -11 l0 -63 l-594 0 l0 63 l132 13 q1 59 1.5 132.5 q0.5 73.5 1.5 146.5 q1 73 1 132 l0 295 q0 120 -41 168.5 q-41 48.5 -109 48.5 q-49 0 -107.5 -26.5 q-58.5 -26.5 -121.5 -83.5 l0 -402 q0 -57 0.5 -130.5 q0.5 -73.5 1.5 -148 q1 -74.5 2 -134.5 l119 -11 l0 -63 l-592 0 l0 63 l135 13 q1 60 2 134 q1 74 1.5 147 q0.5 73 0.5 130 l0 1049 l-150 14 l0 54 l453 88 l29 -19 l-6 -330 l0 -397 q92 109 178.5 158 q86.5 49 202.5 49 q149 0 241 -95 q92 -95 92 -304 l0 -267 q0 -90 1.5 -207 q1.5 -117 2.5 -206 Z" /><glyph glyph-name="i" unicode="i" d="M373 1356 q-72 0 -124 46.5 q-52 46.5 -52 119.5 q0 73 52 120.5 q52 47.5 124 47.5 q73 0 125.5 -47.5 q52.5 -47.5 52.5 -120.5 q0 -73 -52.5 -119.5 q-52.5 -46.5 -125.5 -46.5 ZM549 76 l125 -13 l0 -63 l-598 0 l0 63 l135 13 q1 60 2 134 q1 74 1.5 147 q0.5 73 0.5 130 l0 164 q0 99 -1.5 166 q-1.5 67 -4.5 146 l-154 16 l0 49 l469 123 l29 -21 l-8 -327 l0 -316 q0 -57 0.5 -130.5 q0.5 -73.5 1.5 -147.5 q1 -74 2 -133 Z" /><glyph glyph-name="j" unicode="j" d="M365 1356 q-74 0 -125.5 46.5 q-51.5 46.5 -51.5 119.5 q0 73 51.5 120.5 q51.5 47.5 125.5 47.5 q72 0 124 -47.5 q52 -47.5 52 -120.5 q0 -73 -52 -119.5 q-52 -46.5 -124 -46.5 ZM518 1151 l25 -21 l-6 -327 l0 -653 q0 -156 -14 -256.5 q-14 -100.5 -46 -168 q-32 -67.5 -86 -124.5 q-86 -91 -173 -123.5 q-87 -32.5 -179 -32.5 q-132 0 -200.5 42.5 q-68.5 42.5 -94.5 96.5 q8 74 61 115 q53 41 113 41 q60 0 109.5 -28 q49.5 -28 83.5 -97 l39 -78 q23 27 34 64 q19 53 23 145.5 q4 92.5 2 210 q-2 117.5 -2 246.5 l0 438 q0 100 -2 174.5 q-2 74.5 -6 147.5 l-150 16 l0 49 l469 123 Z" /><glyph glyph-name="k" unicode="k" d="M1239 80 l133 -17 l0 -63 l-446 0 l-291 602 l-92 -84 l0 -14 q0 -61 0.5 -138 q0.5 -77 1.5 -154 q1 -77 2 -136 l129 -13 l0 -63 l-604 0 l0 63 l137 13 q1 59 2 135 q1 76 1.5 149.5 q0.5 73.5 0.5 126.5 l0 1049 l-150 14 l0 54 l459 88 l29 -19 l-8 -330 l0 -739 l442 428 l-207 25 l0 61 l535 0 l0 -61 l-201 -21 l-246 -225 l373 -731 Z" /><glyph glyph-name="l" unicode="l" d="M549 76 l139 -13 l0 -63 l-620 0 l0 63 l141 13 q1 100 2.5 206.5 q1.5 106.5 1.5 204.5 l0 1049 l-150 14 l0 54 l459 88 l29 -19 l-8 -330 l0 -856 q0 -99 1.5 -205 q1.5 -106 4.5 -206 Z" /><glyph glyph-name="m" unicode="m" d="M1923 76 l123 -13 l0 -63 l-580 0 l0 63 l123 13 q1 59 2 132.5 q1 73.5 1.5 146.5 q0.5 73 0.5 132 l0 277 q0 135 -34.5 184 q-34.5 49 -108.5 49 q-57 0 -114 -31 q-57 -31 -115 -89 q4 -28 6 -57.5 q2 -29.5 2 -61.5 l0 -271 q0 -90 1.5 -207 q1.5 -117 4.5 -206 l115 -11 l0 -63 l-580 0 l0 63 l131 13 q1 59 2 132.5 q1 73.5 1.5 146.5 q0.5 73 0.5 132 l0 277 q0 126 -33.5 179.5 q-33.5 53.5 -107.5 53.5 q-55 0 -112.5 -32.5 q-57.5 -32.5 -112.5 -85.5 l0 -392 q0 -57 0.5 -130.5 q0.5 -73.5 1.5 -148 q1 -74.5 2 -134.5 l116 -11 l0 -63 l-591 0 l0 63 l137 13 q1 60 2 134 q1 74 1.5 147 q0.5 73 0.5 130 l0 170 q0 102 -1.5 164 q-1.5 62 -4.5 137 l-154 17 l0 47 l445 129 l28 -21 l15 -182 q89 106 176.5 155.5 q87.5 49.5 191.5 49.5 q115 0 192 -52.5 q77 -52.5 109 -160.5 q102 121 190.5 167 q88.5 46 188.5 46 q172 0 253 -99.5 q81 -99.5 81 -308.5 l0 -258 q0 -60 0.5 -133.5 q0.5 -73.5 1.5 -146.5 q1 -73 2 -131 Z" /><glyph glyph-name="n" unicode="n" d="M1251 74 l123 -11 l0 -63 l-594 0 l0 63 l129 13 q1 59 2 132.5 q1 73.5 1.5 146.5 q0.5 73 0.5 132 l0 295 q0 120 -34.5 168.5 q-34.5 48.5 -106.5 48.5 q-46 0 -106.5 -29 q-60.5 -29 -126.5 -87 l0 -396 q0 -57 0.5 -130.5 q0.5 -73.5 1.5 -148 q1 -74.5 2 -134.5 l116 -11 l0 -63 l-591 0 l0 63 l137 13 q1 60 2 134 q1 74 1.5 147 q0.5 73 0.5 130 l0 170 q0 100 -1.5 163 q-1.5 63 -4.5 136 l-154 17 l0 49 l445 129 l28 -21 l13 -180 q101 117 191 160 q90 43 192 43 q145 0 236 -97 q91 -97 91 -298 l0 -271 q0 -90 1.5 -207 q1.5 -117 4.5 -206 Z" /><glyph glyph-name="o" unicode="o" d="M651 -35 q-175 0 -305 75 q-130 75 -202 210 q-72 135 -72 315 q0 181 77.5 313 q77.5 132 209 203.5 q131.5 71.5 292.5 71.5 q162 0 294 -70.5 q132 -70.5 210 -202 q78 -131.5 78 -315.5 q0 -183 -73 -318 q-73 -135 -204 -208.5 q-131 -73.5 -305 -73.5 ZM651 37 q111 0 169.5 128.5 q58.5 128.5 58.5 395.5 q0 269 -58.5 394.5 q-58.5 125.5 -169.5 125.5 q-110 0 -169.5 -125.5 q-59.5 -125.5 -59.5 -394.5 q0 -267 59.5 -395.5 q59.5 -128.5 169.5 -128.5 Z" /><glyph glyph-name="p" unicode="p" d="M545 940 l0 -778 q38 -31 78.5 -41 q40.5 -10 91.5 -10 q80 0 141.5 41.5 q61.5 41.5 96 140.5 q34.5 99 34.5 270 q0 251 -69.5 350 q-69.5 99 -190.5 99 q-46 0 -89 -13 q-43 -13 -93 -59 ZM522 1130 l15 -131 q72 80 161 117 q89 37 191 37 q125 0 226.5 -68 q101.5 -68 161.5 -199 q60 -131 60 -321 q0 -186 -68 -320.5 q-68 -134.5 -181 -207 q-113 -72.5 -248 -72.5 q-85 0 -161 33 q-76 33 -140 108 l0 -120 q0 -92 1 -205.5 q1 -113.5 3 -233.5 l157 -18 l0 -59 l-628 0 l0 59 l137 14 q1 122 2.5 235.5 q1.5 113.5 1.5 207.5 l0 669 q0 100 -1.5 164 q-1.5 64 -4.5 137 l-152 17 l0 49 l439 129 l28 -21 Z" /><glyph glyph-name="r" unicode="r" d="M522 1130 l17 -292 q46 156 138.5 235.5 q92.5 79.5 184.5 79.5 q72 0 128 -35 q56 -35 71 -127 q-6 -67 -40.5 -116.5 q-34.5 -49.5 -111.5 -49.5 q-58 0 -99 34 q-41 34 -83 89 l-18 25 q-62 -57 -101.5 -129.5 q-39.5 -72.5 -68.5 -186.5 l0 -170 q0 -56 0.5 -127.5 q0.5 -71.5 1.5 -144.5 q1 -73 2 -133 l188 -19 l0 -63 l-665 0 l0 63 l139 15 q1 59 2 132.5 q1 73.5 1.5 146.5 q0.5 73 0.5 130 l0 170 q0 100 -1.5 163 q-1.5 63 -4.5 136 l-154 17 l0 49 l445 129 l28 -21 Z" /><glyph glyph-name="s" unicode="s" d="M557 723 l121 -35 q161 -47 235 -133.5 q74 -86.5 74 -212.5 q0 -178 -134 -277.5 q-134 -99.5 -366 -99.5 q-119 0 -216.5 26 q-97.5 26 -188.5 77 l16 278 l131 0 l64 -270 q38 -16 78.5 -23.5 q40.5 -7.5 89.5 -7.5 q117 0 179 42 q62 42 62 126 q0 65 -39.5 112.5 q-39.5 47.5 -162.5 86.5 l-119 34 q-138 43 -215.5 124.5 q-77.5 81.5 -77.5 211.5 q0 162 121.5 266.5 q121.5 104.5 347.5 104.5 q103 0 187.5 -24 q84.5 -24 175.5 -68 l-17 -258 l-115 0 l-77 241 q-33 16 -67.5 23.5 q-34.5 7.5 -80.5 7.5 q-93 0 -150 -44.5 q-57 -44.5 -57 -121.5 q0 -57 40.5 -103 q40.5 -46 160.5 -83 Z" /><glyph glyph-name="t" unicode="t" d="M799 168 l35 -33 q-47 -83 -125.5 -126.5 q-78.5 -43.5 -196.5 -43.5 q-157 0 -239 75.5 q-82 75.5 -80 246.5 q0 58 1 108 q1 50 1 115 l0 524 l-166 0 l0 66 l182 20 l106 328 l211 0 l-4 -330 l254 0 l0 -84 l-254 0 l0 -774 q0 -83 37 -120.5 q37 -37.5 98 -37.5 q39 0 69.5 16 q30.5 16 70.5 50 Z" /><glyph glyph-name="u" unicode="u" d="M1229 70 l129 -11 l0 -61 l-451 -27 l-10 205 q-71 -89 -169 -150 q-98 -61 -210 -61 q-153 0 -243 94.5 q-90 94.5 -87 327.5 l9 608 l-144 29 l0 55 l455 62 l27 -21 l-13 -334 l0 -430 q0 -123 44 -169 q44 -46 118 -46 q58 0 112 27 q54 27 99 72 l8 757 l-137 27 l0 45 l444 72 l27 -21 l-8 -334 l0 -716 Z" /><glyph glyph-name="v" unicode="v" d="M1202 1118 l0 -61 l-145 -23 l-398 -1038 l-141 0 l-412 1044 l-126 17 l0 61 l628 0 l0 -61 l-147 -17 l256 -733 l246 729 l-160 21 l0 61 l399 0 Z" /><glyph glyph-name="w" unicode="w" d="M1819 1118 l0 -61 l-142 -21 l-362 -1040 l-139 0 q-80 221 -134 371.5 q-54 150.5 -88.5 254.5 q-34.5 104 -58.5 185 l-289 -811 l-139 0 l-375 1048 l-110 13 l0 61 l604 0 l0 -61 l-160 -15 l229 -747 l242 745 l-160 17 l0 61 l535 0 l0 -61 l-158 -19 l250 -731 l217 729 l-184 21 l0 61 l422 0 Z" /><glyph glyph-name="x" unicode="x" d="M1141 72 l100 -9 l0 -63 l-637 0 l-4 63 l154 11 l-236 375 l-229 -367 l145 -19 l0 -63 l-420 0 l0 63 l162 19 l305 424 l-342 538 l-106 13 l0 61 l629 0 l0 -61 l-142 -15 l223 -350 l218 346 l-144 19 l0 61 l393 0 l0 -61 l-137 -21 l-293 -401 l361 -563 Z" /><glyph glyph-name="y" unicode="y" d="M1227 1118 l0 -61 l-137 -19 l-443 -1177 q-60 -160 -135.5 -250.5 q-75.5 -90.5 -151.5 -128 q-76 -37.5 -139 -37.5 q-86 0 -155 45.5 q-69 45.5 -72 114.5 q12 69 64 100 q52 31 112 31 q61 0 107.5 -32 q46.5 -32 84.5 -81 l33 -43 q59 49 104.5 124 q45.5 75 90.5 185 l-486 1155 l-118 13 l0 61 l624 0 l0 -61 l-149 -17 l278 -774 l252 770 l-186 21 l0 61 l422 0 Z" /><glyph glyph-name="z" unicode="z" d="M920 377 l114 0 l-20 -377 l-959 0 l0 63 l615 984 l-398 0 l-92 -281 l-112 8 l16 344 l926 0 l0 -65 l-596 -981 l407 0 l99 305 Z" /><glyph glyph-name="braceleft" unicode="{" d="M715 1581 l-68 -6 q-94 -8 -137 -60.5 q-43 -52.5 -43 -146.5 q0 -71 18.5 -142 q18.5 -71 37 -141 q18.5 -70 18.5 -139 q0 -110 -62.5 -191.5 q-62.5 -81.5 -232.5 -109.5 q170 -28 232.5 -109 q62.5 -81 62.5 -192 q0 -69 -18.5 -139 q-18.5 -70 -37 -141.5 q-18.5 -71.5 -18.5 -143.5 q0 -92 43 -144.5 q43 -52.5 137 -60.5 l68 -6 l0 -78 l-74 0 q-194 0 -310 73 q-116 73 -116 226 q0 67 20 127 q20 60 46 116 q26 56 45.5 110 q19.5 54 19.5 108 q0 51 -21 94.5 q-21 43.5 -75.5 75 q-54.5 31.5 -157.5 45.5 l0 78 q103 14 157.5 45.5 q54.5 31.5 75.5 74.5 q21 43 21 93 q0 55 -19.5 109.5 q-19.5 54.5 -45.5 110.5 q-26 56 -46 116 q-20 60 -20 127 q0 153 116 226 q116 73 310 73 l74 0 l0 -78 Z" /><glyph glyph-name="braceright" unicode="}" d="M692 684 l0 -78 q-102 -14 -157 -45.5 q-55 -31.5 -76 -75 q-21 -43.5 -21 -94.5 q0 -54 20 -108 q20 -54 46 -110 q26 -56 45.5 -116 q19.5 -60 19.5 -127 q0 -153 -116 -226 q-116 -73 -310 -73 l-73 0 l0 78 l67 6 q94 8 137 60.5 q43 52.5 43 144.5 q0 72 -18 143.5 q-18 71.5 -36.5 141.5 q-18.5 70 -18.5 139 q0 111 62 192 q62 81 233 109 q-171 28 -233 109.5 q-62 81.5 -62 191.5 q0 69 18.5 139 q18.5 70 36.5 141 q18 71 18 142 q0 94 -43 146.5 q-43 52.5 -137 60.5 l-67 6 l0 78 l73 0 q194 0 310 -73 q116 -73 116 -226 q0 -67 -19.5 -127 q-19.5 -60 -45.5 -116 q-26 -56 -46 -110.5 q-20 -54.5 -20 -109.5 q0 -50 21 -93 q21 -43 76 -74.5 q55 -31.5 157 -45.5 Z" /><glyph glyph-name="quotedblleft" unicode="&#x201c;" d="M1376 1794 l39 -68 q-109 -52 -165 -128 q-56 -76 -60 -123 q45 -12 94.5 -36 q49.5 -24 84 -68 q34.5 -44 34.5 -114 q0 -70 -50 -115.5 q-50 -45.5 -124 -45.5 q-75 0 -128.5 52.5 q-53.5 52.5 -53.5 158.5 q0 92 32 184.5 q32 92.5 104 172 q72 79.5 193 130.5 ZM1855 1794 l41 -68 q-109 -52 -164.5 -128 q-55.5 -76 -60.5 -123 q44 -12 93.5 -36 q49.5 -24 84.5 -68 q35 -44 35 -114 q0 -70 -50.5 -115.5 q-50.5 -45.5 -125.5 -45.5 q-74 0 -127 52.5 q-53 52.5 -53 158.5 q0 92 32 184.5 q32 92.5 104 172 q72 79.5 191 130.5 Z" /><glyph glyph-name="quotedblright" unicode="&#x201d;" d="M672 1096 l-39 67 q109 52 165 128.5 q56 76.5 60 123.5 q-45 11 -94.5 35.5 q-49.5 24.5 -84 68.5 q-34.5 44 -34.5 113 q0 71 50 116.5 q50 45.5 124 45.5 q75 0 128.5 -52.5 q53.5 -52.5 53.5 -158.5 q0 -92 -32 -185 q-32 -93 -104 -172 q-72 -79 -193 -130 ZM193 1096 l-41 67 q109 52 164.5 128.5 q55.5 76.5 60.5 123.5 q-44 11 -93.5 35.5 q-49.5 24.5 -84.5 68.5 q-35 44 -35 113 q0 71 50.5 116.5 q50.5 45.5 125.5 45.5 q74 0 127 -52.5 q53 -52.5 53 -158.5 q0 -92 -32 -185 q-32 -93 -104 -172 q-72 -79 -191 -130 Z" /><glyph glyph-name="cid38290" unicode="&#x2ec5;&#x89c1;" d="M641 1554 l0 -1013 q0 -16 -67 -45 q-67 -29 -185 -29 l-57 0 l0 1266 l332 -121 l761 0 l154 172 l266 -209 q-11 -15 -29 -27 q-18 -12 -55 -18 l0 -961 q0 -12 -71 -42.5 q-71 -30.5 -197 -30.5 l-57 0 l0 1058 l-795 0 ZM1907 504 l6 -350 q55 -23 72.5 -50 q17.5 -27 17.5 -67 q0 -60 -42 -98.5 q-42 -38.5 -142.5 -57 q-100.5 -18.5 -276.5 -18.5 l-209 0 q-116 0 -179 19 q-63 19 -87.5 70.5 q-24.5 51.5 -24.5 147.5 l0 412 q-62 -144 -179 -272 q-117 -128 -311 -236.5 q-194 -108.5 -486 -196.5 l-17 27 q251 125 406.5 262.5 q155.5 137.5 239.5 288 q84 150.5 117.5 315 q33.5 164.5 39 343 q5.5 178.5 6.5 372.5 l379 -35 q-3 -21 -20 -35.5 q-17 -14.5 -54 -19.5 q-4 -135 -11 -264 q-7 -129 -26 -250 l267 -23 q-3 -19 -18.5 -33.5 q-15.5 -14.5 -49.5 -19.5 l0 -561 q0 -24 13.5 -33.5 q13.5 -9.5 56.5 -9.5 l180 0 q43 0 79 0.5 q36 0.5 56 1.5 q25 2 35 9.5 q10 7.5 20 27.5 q22 37 51.5 124 q29.5 87 69.5 210 l21 0 Z" /><glyph glyph-name="cid43838" unicode="&#x2ed4;&#x95e8;" d="M190 -190 l0 1689 l383 -35 q-3 -26 -21 -44.5 q-18 -18.5 -69 -24.5 l0 -1493 q0 -15 -36 -36.5 q-36 -21.5 -91.5 -38.5 q-55.5 -17 -113.5 -17 l-52 0 ZM367 1747 l14 12 q181 -5 290.5 -48 q109.5 -43 160 -104 q50.5 -61 53.5 -123 q3 -62 -30.5 -107.5 q-33.5 -45.5 -92.5 -57.5 q-59 -12 -131 29 q-36 109 -111 217 q-75 108 -153 182 ZM1675 1706 l264 -207 q-10 -12 -29.5 -24.5 q-19.5 -12.5 -49.5 -20.5 l0 -1313 q0 -96 -26 -164.5 q-26 -68.5 -107.5 -109.5 q-81.5 -41 -249.5 -55 q-7 70 -20 122 q-13 52 -44 84 q-32 34 -79 58 q-47 24 -142 43 l0 24 q0 0 42 -2 q42 -2 100.5 -5 q58.5 -3 111 -5 q52.5 -2 72.5 -2 q27 0 37 12 q10 12 10 33 l0 1327 l-594 0 l-19 58 l592 0 l131 147 Z" /><glyph glyph-name="cid45194" unicode="&#x2edb;&#x98ce;" d="M1970 514 l-16 -375 q43 -95 48.5 -169 q5.5 -74 -24.5 -103 q-64 -63 -143.5 -45 q-79.5 18 -153.5 74 q-106 70 -169.5 209 q-63.5 139 -96 325 q-32.5 186 -43 400 q-10.5 214 -8.5 436 q-20 -14 -55 -11 q-36 -116 -76 -222 q-40 -106 -86 -202 q107 -135 158 -254.5 q51 -119.5 56.5 -211 q5.5 -91.5 -24.5 -145.5 q-30 -54 -85 -59 q-55 -5 -124 50 q-20 86 -53.5 178.5 q-33.5 92.5 -75.5 185.5 q-202 -299 -501 -493 l-23 18 q115 139 219.5 320 q104.5 181 186.5 393 q-66 121 -137.5 236 q-71.5 115 -139.5 217 l29 12 q95 -61 175.5 -122.5 q80.5 -61.5 147.5 -123.5 q27 91 49 184.5 q22 93.5 37 190.5 l322 -102 q2 59 2.5 118 q0.5 59 1.5 117 l-776 0 l0 -692 q0 -145 -13 -289.5 q-13 -144.5 -62 -280 q-49 -135.5 -156 -256 q-107 -120.5 -295 -219.5 l-17 13 q115 141 167 306 q52 165 65.5 347.5 q13.5 182.5 13.5 376.5 l0 866 l342 -115 l706 0 l144 164 l268 -225 q-23 -27 -92 -41 q-11 -127 -15.5 -282 q-4.5 -155 1 -312 q5.5 -157 25.5 -294.5 q20 -137.5 57.5 -232 q37.5 -94.5 97.5 -120.5 q20 -11 31 -5 q11 6 20 27 q22 54 38.5 112.5 q16.5 58.5 33.5 127.5 l18 -2 Z" /><glyph glyph-name="cid46963" unicode="&#x2ee5;&#x9c7c;" d="M1186 307 l266 0 l0 355 l-266 0 l0 -355 ZM635 662 l0 -355 l264 0 l0 355 l-264 0 ZM1159 1425 l-391 0 q-105 -129 -231 -249 l127 -46 l346 0 q40 63 80 146 q40 83 69 149 ZM635 1073 l0 -354 l264 0 l0 354 l-264 0 ZM1452 1073 l-266 0 l0 -354 l266 0 l0 354 ZM1749 1026 l0 -823 q-2 -6 -24 -17.5 q-22 -11.5 -56 -23.5 q18 -14 68.5 -54 q50.5 -40 112.5 -90.5 q62 -50.5 112 -93.5 q-9 -33 -61 -33 l-1803 0 l-16 58 l1411 0 l160 209 q-36 -11 -76 -19 q-40 -8 -76 -8 l-49 0 l0 119 l-817 0 l0 -88 q0 -10 -29 -31 q-29 -21 -83 -38 q-54 -17 -130 -17 l-55 0 l0 932 q-54 -40 -109 -75 q-55 -35 -112 -65 l-15 15 q74 76 147 179.5 q73 103.5 139 221.5 q66 118 119.5 239 q53.5 121 88.5 232 l405 -84 q-4 -18 -20.5 -26.5 q-16.5 -8.5 -60.5 -8.5 q-25 -38 -51.5 -76.5 q-26.5 -38.5 -55.5 -76.5 l344 0 l154 151 l262 -223 q-20 -25 -82 -31 q-83 -61 -189 -129 q-106 -68 -212 -121 l342 0 l131 146 l266 -205 q-9 -12 -29 -24.5 q-20 -12.5 -51 -20.5 Z" /><glyph glyph-name="cid48218" unicode="&#x2eec;&#x9f50;" d="M545 428 l0 305 l364 -33 q-3 -20 -16.5 -34 q-13.5 -14 -48.5 -19 l0 -221 q-3 -99 -34.5 -195 q-31.5 -96 -113.5 -181 q-82 -85 -233 -151.5 q-151 -66.5 -393 -107.5 l-9 19 q156 59 251.5 130.5 q95.5 71.5 146 152 q50.5 80.5 68.5 165.5 q18 85 18 170 ZM1225 -195 l0 918 l366 -31 q-3 -18 -15.5 -32.5 q-12.5 -14.5 -49.5 -20.5 l0 -764 q0 -10 -38 -26.5 q-38 -16.5 -95.5 -30 q-57.5 -13.5 -114.5 -13.5 l-53 0 ZM1276 1401 l-655 0 q78 -105 191 -178.5 q113 -73.5 251 -122.5 q74 64 128 139.5 q54 75.5 85 161.5 ZM1884 1401 l-258 0 q-96 -223 -305 -373 q163 -34 341.5 -48 q178.5 -14 360.5 -17 l-2 -25 q-90 -28 -143 -98 q-53 -70 -72 -174 q-216 27 -405.5 77.5 q-189.5 50.5 -345.5 135.5 q-200 -85 -452.5 -134.5 q-252.5 -49.5 -549.5 -70.5 l-6 24 q261 48 476.5 117 q215.5 69 375.5 166 q-101 78 -182.5 182 q-81.5 104 -141.5 238 l-450 0 l-16 57 l917 0 q-47 4 -94 33 q-9 72 -48 141.5 q-39 69.5 -85 112.5 l12 10 q154 17 241.5 -6 q87.5 -23 122 -68.5 q34.5 -45.5 26.5 -95 q-8 -49.5 -47 -86 q-39 -36.5 -97 -41.5 l416 0 l167 199 q0 0 31 -21.5 q31 -21.5 78.5 -55.5 q47.5 -34 100 -73 q52.5 -39 96.5 -73 q-9 -33 -62 -33 Z" /><glyph glyph-name="cid09502" unicode="&#x2f00;&#x4e00;" d="M59 856 l1422 0 l190 270 q0 0 34.5 -30 q34.5 -30 87.5 -77.5 q53 -47.5 110.5 -99.5 q57.5 -52 103.5 -96 q-9 -32 -65 -32 l-1864 0 l-19 65 Z" /><glyph glyph-name="cid09773" unicode="&#x2f08;&#x4eba;" d="M750 1722 l397 -36 q-3 -24 -19.5 -38 q-16.5 -14 -56.5 -20 q16 -302 67.5 -539 q51.5 -237 156 -416.5 q104.5 -179.5 278.5 -307.5 q174 -128 434 -211 l-2 -25 q-112 -23 -181 -103.5 q-69 -80.5 -93 -201.5 q-186 95 -309 232 q-123 137 -197.5 314 q-74.5 177 -113.5 393 q-39 216 -56 470 q-15 -203 -60.5 -400 q-45.5 -197 -148.5 -380.5 q-103 -183.5 -288.5 -346.5 q-185.5 -163 -479.5 -299 l-21 27 q215 170 348.5 350.5 q133.5 180.5 205 368.5 q71.5 188 100.5 381.5 q29 193.5 33.5 391 q4.5 197.5 5.5 396.5 Z" /><glyph glyph-name="cid11889" unicode="&#x2f1c;&#x53c8;" d="M1380 1438 l-817 0 q66 -252 185 -452.5 q119 -200.5 274 -356.5 q126 183 215.5 387 q89.5 204 142.5 422 ZM1536 1671 l285 -266 q-13 -20 -34.5 -29 q-21.5 -9 -66.5 -14 q-73 -255 -191 -487.5 q-118 -232.5 -296 -428.5 q172 -130 365.5 -223 q193.5 -93 396.5 -160 l-8 -24 q-111 -6 -193.5 -67.5 q-82.5 -61.5 -128.5 -164.5 q-178 88 -334 200.5 q-156 112.5 -287 258.5 q-184 -153 -426 -270 q-242 -117 -552 -191 l-15 19 q258 118 468.5 279 q210.5 161 373.5 356 q-131 190 -223.5 432.5 q-92.5 242.5 -145.5 546.5 l-327 0 l-19 57 l1186 0 l172 176 Z" /><glyph glyph-name="cid15539" unicode="&#x2f26;&#x5b50;" d="M1511 813 l168 213 q0 0 30.5 -23 q30.5 -23 78 -59.5 q47.5 -36.5 99.5 -77.5 q52 -41 95 -78 q-8 -32 -61 -32 l-737 0 l0 -604 q0 -102 -28.5 -173.5 q-28.5 -71.5 -117.5 -114.5 q-89 -43 -270 -59 q-9 76 -24 128 q-15 52 -54 87 q-37 36 -89 61.5 q-52 25.5 -163 45.5 l0 25 q0 0 33.5 -2 q33.5 -2 85 -5 q51.5 -3 106 -5.5 q54.5 -2.5 98.5 -4.5 q44 -2 62 -2 q47 0 47 39 l0 584 l-782 0 l-16 57 l798 0 l0 365 l254 -23 q73 75 144.5 166.5 q71.5 91.5 122.5 165.5 l-1090 0 l-18 57 l1120 0 l168 160 l274 -238 q-20 -25 -84 -30 q-115 -71 -257.5 -148.5 q-142.5 -77.5 -284.5 -140.5 l34 -2 q-5 -44 -69 -55 l0 -277 l327 0 Z" /><glyph glyph-name="cid17830" unicode="&#x2f3c;&#x5fc3;" d="M315 1137 l23 2 q93 -190 116.5 -340.5 q23.5 -150.5 -1.5 -263.5 q-25 -113 -78 -189 q-37 -57 -89.5 -77.5 q-52.5 -20.5 -104.5 -9 q-52 11.5 -89 51.5 q-43 54 -34.5 115 q8.5 61 54.5 109 q52 45 99 135 q47 90 76.5 210 q29.5 120 27.5 257 ZM1524 1087 q182 -101 290.5 -207.5 q108.5 -106.5 158 -207.5 q49.5 -101 52.5 -188 q3 -87 -26.5 -149.5 q-29.5 -62.5 -79 -92 q-49.5 -29.5 -105.5 -16 q-56 13.5 -104 80.5 q-1 106 -19 239.5 q-18 133.5 -61.5 271 q-43.5 137.5 -122.5 255.5 l17 14 ZM561 1376 l369 -35 q-2 -20 -18 -35 q-16 -15 -54 -20 l0 -1020 q0 -37 23 -50 q23 -13 81 -13 l232 0 q52 0 97.5 1 q45.5 1 74.5 3 q52 3 76 35 q24 33 56.5 112 q32.5 79 72.5 193 l20 0 l8 -318 q65 -26 88 -55 q23 -29 23 -72 q0 -67 -47 -111.5 q-47 -44.5 -166 -66.5 q-119 -22 -334 -22 l-246 0 q-133 0 -211 20.5 q-78 20.5 -111.5 79 q-33.5 58.5 -33.5 172.5 l0 1202 ZM899 1716 q198 -50 315.5 -128 q117.5 -78 169 -163.5 q51.5 -85.5 51 -162 q-0.5 -76.5 -39.5 -126.5 q-39 -50 -103.5 -56 q-64.5 -6 -138.5 50 q-26 151 -103 304 q-77 153 -167 270 l16 12 Z" /><glyph glyph-name="cid20657" unicode="&#x2f46;&#x65e0;" d="M1901 461 l6 -264 q58 -25 77 -53.5 q19 -28.5 19 -71.5 q0 -61 -39 -100.5 q-39 -39.5 -135.5 -58.5 q-96.5 -19 -269.5 -19 l-189 0 q-118 0 -180.5 20.5 q-62.5 20.5 -86.5 74.5 q-24 54 -24 154 l0 777 l-41 0 q-25 -172 -82.5 -328.5 q-57.5 -156.5 -164 -295.5 q-106.5 -139 -279 -260 q-172.5 -121 -428.5 -222 l-18 28 q241 159 380 331.5 q139 172.5 205.5 359 q66.5 186.5 89.5 387.5 l-637 0 l-16 57 l657 0 q13 123 14 252 q1 129 3 264 l-531 0 l-16 57 l1192 0 l158 209 q0 0 29 -22.5 q29 -22.5 74 -58.5 q45 -36 94 -76.5 q49 -40.5 89 -75.5 q-4 -17 -20.5 -25 q-16.5 -8 -38.5 -8 l-717 0 q-3 -137 -8 -266 q-5 -129 -20 -250 l473 0 l161 213 q0 0 30 -23 q30 -23 76 -59.5 q46 -36.5 96.5 -78 q50.5 -41.5 90.5 -77.5 q-3 -17 -19.5 -24.5 q-16.5 -7.5 -39.5 -7.5 l-535 0 l0 -29 l0 -668 q0 -24 12.5 -34.5 q12.5 -10.5 51.5 -10.5 l151 0 q33 0 64 0.5 q31 0.5 51 1.5 q39 3 59 29 q20 28 48 94.5 q28 66.5 63 157.5 l21 0 Z" /><glyph glyph-name="cid23328" unicode="&#x2f50;&#x6bd4;" d="M674 997 l141 228 q0 0 26.5 -25 q26.5 -25 66.5 -64 q40 -39 82.5 -82.5 q42.5 -43.5 74.5 -80.5 q-9 -33 -57 -33 l-433 0 l0 -723 q217 57 463 133 l6 -20 q-82 -69 -233.5 -185.5 q-151.5 -116.5 -353.5 -248.5 q-16 -34 -35 -57.5 q-19 -23.5 -39 -37.5 l-207 310 q72 44 92.5 70.5 q20.5 26.5 20.5 68.5 l0 1472 l370 -34 q-4 -27 -21.5 -42.5 q-17.5 -15.5 -62.5 -23.5 l0 -625 l99 0 ZM1903 504 l10 -305 q57 -28 77.5 -56.5 q20.5 -28.5 20.5 -66.5 q0 -63 -40.5 -103.5 q-40.5 -40.5 -137 -61 q-96.5 -20.5 -264.5 -20.5 l-178 0 q-114 0 -179.5 21.5 q-65.5 21.5 -92.5 78 q-27 56.5 -27 161.5 l0 1558 l364 -37 q-1 -21 -17.5 -37 q-16.5 -16 -56.5 -22 l0 -631 q77 75 159 167.5 q82 92.5 151 184.5 l280 -260 q-15 -17 -37.5 -19.5 q-22.5 -2.5 -62.5 11.5 q-120 -66 -247 -112.5 q-127 -46.5 -243 -73.5 l0 -639 q0 -34 17.5 -48 q17.5 -14 60.5 -14 l139 0 q33 0 62 0.5 q29 0.5 49 1.5 q17 2 32.5 8 q15.5 6 29.5 23 q21 32 51 113 q30 81 59 178 l21 0 Z" /><glyph glyph-name="cid23498" unicode="&#x2f54;&#x6c34;" d="M1642 1417 l332 -215 q-7 -15 -25 -23 q-18 -8 -57 -3 q-98 -77 -234 -169.5 q-136 -92.5 -282 -168.5 q126 -209 291 -334.5 q165 -125.5 334 -202.5 l-10 -22 q-93 -19 -158.5 -92.5 q-65.5 -73.5 -95.5 -176.5 q-115 102 -206 219.5 q-91 117.5 -160 266 q-69 148.5 -118 341 q-49 192.5 -79 445.5 l0 -1132 q0 -102 -26 -172.5 q-26 -70.5 -108.5 -112 q-82.5 -41.5 -251.5 -55.5 q-6 73 -19 125 q-13 52 -44 88 q-31 33 -75 58 q-44 25 -138 42 l0 27 q0 0 40 -2.5 q40 -2.5 95.5 -6 q55.5 -3.5 105.5 -6 q50 -2.5 70 -2.5 q47 0 47 37 l0 872 q-13 -2 -41 -6 q-47 -203 -139.5 -396.5 q-92.5 -193.5 -248 -356.5 q-155.5 -163 -392.5 -277 l-16 21 q144 129 244 300 q100 171 161.5 364.5 q61.5 193.5 89.5 387.5 l-424 0 l-18 58 l426 0 l143 149 l215 -182 l0 645 l375 -37 q-3 -21 -17.5 -35 q-14.5 -14 -53.5 -20 l0 -240 q26 -156 70.5 -286 q44.5 -130 101.5 -236 q58 85 115 180.5 q57 95.5 104.5 185.5 q47.5 90 76.5 156 Z" /><glyph glyph-name="cid27680" unicode="&#x2f64;&#x7528;" d="M1165 608 l351 0 l0 441 l-351 0 l0 -441 ZM553 608 l321 0 l0 441 l-305 0 l0 -103 q0 -81 -2.5 -166.5 q-2.5 -85.5 -13.5 -171.5 ZM874 1526 l-305 0 l0 -420 l305 0 l0 420 ZM1516 1526 l-351 0 l0 -420 l351 0 l0 420 ZM1628 1739 l275 -217 q-13 -14 -34 -28 q-21 -14 -57 -21 l0 -1317 q0 -96 -23.5 -162 q-23.5 -66 -99 -105.5 q-75.5 -39.5 -231.5 -52.5 q-4 69 -13.5 119.5 q-9.5 50.5 -31.5 81.5 q-23 32 -58 55 q-35 23 -112 37 l0 27 q0 0 29.5 -2 q29.5 -2 71 -4.5 q41.5 -2.5 78.5 -4.5 q37 -2 53 -2 q24 0 32.5 11.5 q8.5 11.5 8.5 29.5 l0 367 l-351 0 l0 -637 q0 -14 -62 -46 q-62 -32 -175 -32 l-54 0 l0 715 l-329 0 q-22 -133 -72.5 -262 q-50.5 -129 -147.5 -246 q-97 -117 -255 -213 l-19 14 q107 157 155 338.5 q48 181.5 60.5 375.5 q12.5 194 12.5 386 l0 752 l333 -113 l881 0 l135 156 Z" /><glyph glyph-name="cid28520" unicode="&#x2f6c;&#x76ee;" d="M651 72 l752 0 l0 454 l-752 0 l0 -454 ZM1403 1026 l-752 0 l0 -442 l752 0 l0 442 ZM1403 1518 l-752 0 l0 -435 l752 0 l0 435 ZM1530 1741 l285 -230 q-13 -15 -34 -28 q-21 -13 -55 -21 l0 -1532 q-2 -11 -45 -33.5 q-43 -22.5 -106 -41.5 q-63 -19 -123 -19 l-49 0 l0 178 l-752 0 l0 -90 q0 -19 -37 -46 q-37 -27 -96.5 -47.5 q-59.5 -20.5 -128.5 -20.5 l-51 0 l0 1896 l332 -131 l710 0 l150 166 Z" /><glyph glyph-name="cid33050" unicode="&#x2f7c;&#x8001;&#xf934;" d="M995 1343 l0 -331 l39 0 q166 166 301 331 l-340 0 ZM1577 1012 l143 184 q0 0 26 -20.5 q26 -20.5 66 -52.5 q40 -32 84 -68 q44 -36 80 -68 q-9 -33 -57 -33 l-610 0 q-102 -84 -213.5 -166 q-111.5 -82 -233.5 -157 l0 -207 q115 53 228.5 118.5 q113.5 65.5 209.5 132 q96 66.5 158 124.5 l295 -230 q-17 -17 -51 -20 q-34 -3 -86 12 q-140 -57 -341 -109 q-201 -52 -413 -85 l0 -203 q0 -31 21.5 -42 q21.5 -11 89.5 -11 l313 0 q69 0 132.5 1 q63.5 1 99.5 3 q56 3 84 32 q24 28 54.5 87.5 q30.5 59.5 72.5 156.5 l20 0 l6 -250 q71 -23 95 -49 q24 -26 24 -67 q0 -50 -27 -83.5 q-27 -33.5 -94 -54 q-67 -20.5 -187.5 -30 q-120.5 -9.5 -308.5 -9.5 l-309 0 q-142 0 -224.5 18 q-82.5 18 -117.5 71 q-35 53 -35 157 l0 373 q-126 -63 -259.5 -119 q-133.5 -56 -276.5 -100 l-15 24 q145 73 283.5 159.5 q138.5 86.5 267.5 182.5 l0 226 l256 -21 q77 68 148 135 l-889 0 l-16 58 l628 0 l0 331 l-460 0 l-17 58 l477 0 l0 350 l363 -29 q-3 -20 -16 -33.5 q-13 -13.5 -50 -19.5 l0 -268 l54 0 l139 184 q0 0 32 -25.5 q32 -25.5 79.5 -64.5 q47.5 -39 93.5 -78 q60 77 111.5 152 q51.5 75 92.5 145 l318 -207 q-12 -17 -32 -23 q-20 -6 -58 5 q-91 -117 -203.5 -238 q-112.5 -121 -247.5 -239 l203 0 Z" /><glyph glyph-name="cid37503" unicode="&#x2f8f;&#x884c;&#xfa08;" d="M1880 1477 l-952 0 l-17 57 l637 0 l140 184 q0 0 25.5 -20.5 q25.5 -20.5 64.5 -52.5 q39 -32 82 -68 q43 -36 77 -68 q-9 -32 -57 -32 ZM508 1745 l321 -203 q-9 -15 -26.5 -23 q-17.5 -8 -52.5 -1 q-79 -67 -183.5 -137.5 q-104.5 -70.5 -225 -135 q-120.5 -64.5 -247.5 -112.5 l-16 20 q86 83 169.5 189.5 q83.5 106.5 152 213 q68.5 106.5 108.5 189.5 ZM535 1337 l342 -200 q-8 -14 -26 -23 q-18 -9 -56 -4 q-40 -43 -86 -90 q-46 -47 -99 -94 l95 -35 q-10 -30 -64 -41 l0 -973 q-2 -10 -38.5 -27.5 q-36.5 -17.5 -91 -32 q-54.5 -14.5 -112.5 -14.5 l-55 0 l0 904 q-147 -107 -305 -189 l-16 19 q78 86 154 190 q76 104 144.5 213.5 q68.5 109.5 123 212 q54.5 102.5 90.5 184.5 ZM1593 1061 l146 192 q0 0 26.5 -21 q26.5 -21 67.5 -54 q41 -33 85.5 -71 q44.5 -38 80.5 -71 q-9 -32 -60 -32 l-274 0 l0 -836 q0 -96 -28.5 -170 q-28.5 -74 -114.5 -119 q-86 -45 -260 -55 q-5 71 -21 124 q-16 53 -51 85 q-35 30 -86 55 q-51 25 -162 43 l0 25 q0 0 32.5 -2 q32.5 -2 81.5 -5 q49 -3 102 -5.5 q53 -2.5 96 -4.5 q43 -2 61 -2 q47 0 47 39 l0 828 l-551 0 l-16 57 l798 0 Z" /><glyph glyph-name="cid37537" unicode="&#x2f90;&#x8863;" d="M801 1729 l14 10 q166 -18 258.5 -66 q92.5 -48 127 -108.5 q34.5 -60.5 23 -117.5 q-11.5 -57 -54.5 -94 q-43 -37 -105 -38.5 q-62 -1.5 -128 51.5 q-5 98 -43 195.5 q-38 97.5 -92 167.5 ZM1597 1159 l314 -227 q-8 -14 -25.5 -21 q-17.5 -7 -54.5 0 q-101 -55 -236.5 -119.5 q-135.5 -64.5 -273.5 -119.5 q121 -220 302 -356 q181 -136 400 -230 l-6 -23 q-93 -10 -167 -68 q-74 -58 -115 -157 q-142 100 -249 219.5 q-107 119.5 -183 277 q-76 157.5 -124 369 q-48 211.5 -71 494.5 q-116 -174 -297 -317 l0 -652 q100 23 211 49.5 q111 26.5 223 55.5 l4 -19 q-84 -69 -240.5 -182 q-156.5 -113 -365.5 -244 q-20 -36 -47 -60 q-27 -24 -53 -36 l-156 363 q74 33 94.5 58.5 q20.5 25.5 20.5 61.5 l0 402 q-100 -54 -210 -100 q-110 -46 -229 -84 l-12 20 q154 90 288 211 q134 121 240 255.5 q106 134.5 177 264.5 l-666 0 l-16 58 l1431 0 l164 202 q0 0 30 -22 q30 -22 76.5 -57 q46.5 -35 97.5 -74 q51 -39 93 -74 q-9 -33 -61 -33 l-764 0 q21 -152 59 -280 q38 -128 90 -234 q59 70 117.5 148.5 q58.5 78.5 108.5 152 q50 73.5 81 127.5 Z" /><glyph glyph-name="cid39552" unicode="&#x2f96;&#x8c46;" d="M1870 1481 l-1714 0 l-17 57 l1325 0 l166 211 q0 0 30.5 -23 q30.5 -23 78 -59.5 q47.5 -36.5 99 -77 q51.5 -40.5 93.5 -76.5 q-9 -32 -61 -32 ZM664 680 l714 0 l0 438 l-714 0 l0 -438 ZM1430 512 l-52 0 l0 111 l-714 0 l0 -62 q0 -11 -26.5 -28.5 q-26.5 -17.5 -68.5 -32.5 q154 -47 237 -112.5 q83 -65.5 110 -134.5 q27 -69 11 -126.5 q-16 -57.5 -61 -91 q-45 -33.5 -105.5 -29 q-60.5 4.5 -121.5 63.5 q0 112 -27.5 221.5 q-27.5 109.5 -64.5 200.5 q-31 -10 -66.5 -16.5 q-35.5 -6.5 -70.5 -6.5 l-43 0 l0 825 l313 -118 l678 0 l129 141 l268 -201 q-9 -12 -28 -25.5 q-19 -13.5 -52 -19.5 l0 -498 q-1 -7 -42.5 -21.5 q-41.5 -14.5 -98.5 -27 q-57 -12.5 -104 -12.5 ZM1520 -25 l170 215 q0 0 30.5 -23 q30.5 -23 78.5 -60 q48 -37 100.5 -78.5 q52.5 -41.5 95.5 -77.5 q-9 -33 -62 -33 l-1865 0 l-17 57 l1049 0 q20 80 41 175.5 q21 95.5 38 189 q17 93.5 27 168.5 l387 -84 q-4 -20 -22.5 -32.5 q-18.5 -12.5 -54.5 -12.5 q-63 -85 -159.5 -196.5 q-96.5 -111.5 -193.5 -207.5 l357 0 Z" /><glyph glyph-name="cid42215" unicode="&#x2fa5;&#x91cc;&#xf9e9;" d="M584 764 l276 0 l0 354 l-276 0 l0 -354 ZM860 1520 l-276 0 l0 -344 l276 0 l0 344 ZM1454 1520 l-278 0 l0 -344 l278 0 l0 344 ZM1176 764 l278 0 l0 354 l-278 0 l0 -354 ZM1528 -45 l168 215 q0 0 30.5 -23.5 q30.5 -23.5 78.5 -60.5 q48 -37 100 -78.5 q52 -41.5 94 -77.5 q-9 -32 -62 -32 l-1861 0 l-17 57 l801 0 l0 377 l-608 0 l-16 57 l624 0 l0 318 l-276 0 l0 -76 q0 -16 -38.5 -39.5 q-38.5 -23.5 -98 -42.5 q-59.5 -19 -123.5 -19 l-45 0 l0 1172 l323 -125 l832 0 l135 149 l272 -210 q-9 -13 -28 -25 q-19 -12 -52 -18 l0 -797 q-1 -8 -43 -25.5 q-42 -17.5 -101 -32 q-59 -14.5 -112 -14.5 l-51 0 l0 103 l-278 0 l0 -318 l223 0 l157 201 q0 0 29.5 -22 q29.5 -22 74.5 -56.5 q45 -34.5 95 -73.5 q50 -39 90 -73 q-4 -17 -21 -25 q-17 -8 -38 -8 l-610 0 l0 -377 l352 0 Z" /><glyph glyph-name="cid44253" unicode="&#x2fac;&#x96e8;" d="M469 590 l16 10 q142 -19 220 -62 q78 -43 105.5 -95.5 q27.5 -52.5 16 -100 q-11.5 -47.5 -49.5 -78.5 q-38 -31 -91 -31 q-53 0 -108 46 q-5 82 -38 166.5 q-33 84.5 -71 144.5 ZM471 1036 l16 11 q140 -15 217.5 -54.5 q77.5 -39.5 105 -89.5 q27.5 -50 16.5 -97 q-11 -47 -48.5 -77.5 q-37.5 -30.5 -90 -31 q-52.5 -0.5 -107.5 43.5 q-2 79 -34 159.5 q-32 80.5 -75 135.5 ZM1176 1034 l16 10 q139 -11 217 -48 q78 -37 107 -85.5 q29 -48.5 20.5 -95 q-8.5 -46.5 -44 -77.5 q-35.5 -31 -87 -33.5 q-51.5 -2.5 -107.5 38.5 q-7 79 -44 157.5 q-37 78.5 -78 133.5 ZM1184 588 l16 10 q139 -19 214.5 -61 q75.5 -42 101 -92.5 q25.5 -50.5 12 -96.5 q-13.5 -46 -53 -74.5 q-39.5 -28.5 -93 -26.5 q-53.5 2 -107.5 48 q0 78 -27.5 157.5 q-27.5 79.5 -62.5 135.5 ZM1946 1513 l-787 0 l0 -286 l393 0 l131 147 l271 -209 q-11 -12 -30.5 -24.5 q-19.5 -12.5 -51.5 -18.5 l0 -1007 q0 -92 -25 -156.5 q-25 -64.5 -104 -102 q-79 -37.5 -240 -51.5 q-4 66 -14.5 113 q-10.5 47 -38.5 78 q-26 29 -65 52.5 q-39 23.5 -125 37.5 l0 25 q0 0 33.5 -2 q33.5 -2 81 -4.5 q47.5 -2.5 91.5 -4.5 q44 -2 64 -2 q26 0 34.5 10.5 q8.5 10.5 8.5 30.5 l0 1030 l-414 0 l0 -1267 q-1 -14 -64.5 -47 q-63.5 -33 -176.5 -33 l-56 0 l0 1347 l-409 0 l0 -1259 q0 -18 -35.5 -42 q-35.5 -24 -91 -42.5 q-55.5 -18.5 -115.5 -18.5 l-45 0 l0 1541 l309 -121 l387 0 l0 286 l-788 0 l-17 58 l1508 0 l155 186 q0 0 28.5 -20.5 q28.5 -20.5 73 -52.5 q44.5 -32 93.5 -69 q49 -37 90 -69 q-5 -17 -21.5 -25 q-16.5 -8 -37.5 -8 Z" /><glyph glyph-name="cid44566" unicode="&#x2faf;&#x9762;" d="M1100 1118 l-174 0 l0 -313 l174 0 l0 313 ZM1534 1118 l-160 0 l0 -1073 l160 0 l0 1073 ZM498 1118 l0 -1073 l155 0 l0 1073 l-155 0 ZM1100 424 l0 324 l-174 0 l0 -324 l174 0 ZM926 367 l0 -322 l174 0 l0 322 l-174 0 ZM1536 1536 l164 203 q0 0 30 -22 q30 -22 76.5 -57 q46.5 -35 97.5 -74.5 q51 -39.5 93 -74.5 q-5 -16 -21.5 -24 q-16.5 -8 -38.5 -8 l-735 0 q-75 -79 -164.5 -160.5 q-89.5 -81.5 -169.5 -142.5 l654 0 l147 167 l260 -204 q-12 -16 -31.5 -28.5 q-19.5 -12.5 -56.5 -18.5 l0 -1176 q0 -12 -68.5 -44 q-68.5 -32 -185.5 -32 l-53 0 l0 148 l-1036 0 l0 -92 q0 -16 -64 -45 q-64 -29 -176 -29 l-53 0 l0 1470 l317 -116 l262 0 q5 64 9.5 146.5 q4.5 82.5 7.5 156.5 l-727 0 l-17 57 l1479 0 Z" /><glyph glyph-name="cid44831" unicode="&#x2fb3;&#x97f3;" d="M717 27 l612 0 l0 286 l-612 0 l0 -286 ZM1329 649 l-612 0 l0 -278 l612 0 l0 278 ZM1307 707 l141 153 l281 -217 q-11 -12 -32 -25.5 q-21 -13.5 -55 -21.5 l0 -680 q-1 -11 -42 -34 q-41 -23 -100.5 -42.5 q-59.5 -19.5 -117.5 -19.5 l-53 0 l0 149 l-612 0 l0 -65 q0 -15 -37.5 -37 q-37.5 -22 -96 -39.5 q-58.5 -17.5 -120.5 -17.5 l-43 0 l0 1017 l313 -120 l574 0 ZM1548 971 l154 203 q0 0 28.5 -22.5 q28.5 -22.5 72.5 -57.5 q44 -35 92 -74 q48 -39 87 -74 q-4 -17 -20.5 -25 q-16.5 -8 -38.5 -8 l-1829 0 l-16 58 l1061 0 q37 95 71 215 q34 120 56 217 l-674 0 q135 -38 206.5 -94 q71.5 -56 92 -115.5 q20.5 -59.5 3 -110.5 q-17.5 -51 -61 -81 q-43.5 -30 -101 -25 q-57.5 5 -115.5 57 q-1 99 -29 195 q-28 96 -67 174 l-336 0 l-16 57 l819 0 q-36 9 -72 33 q-7 72 -39.5 140.5 q-32.5 68.5 -66.5 113.5 l12 10 q141 6 223 -18.5 q82 -24.5 116.5 -65 q34.5 -40.5 31.5 -85 q-3 -44.5 -34.5 -80 q-31.5 -35.5 -80.5 -48.5 l408 0 l149 195 q0 0 27.5 -21.5 q27.5 -21.5 70 -55 q42.5 -33.5 89 -71.5 q46.5 -38 84.5 -71 q-9 -33 -60 -33 l-514 0 l316 -96 q-7 -19 -25 -29.5 q-18 -10.5 -53 -7.5 q-71 -65 -178 -148.5 q-107 -83.5 -211 -150.5 l368 0 Z" /><glyph glyph-name="cid46171" unicode="&#x2fbc;&#x9ad8;" d="M903 219 l244 0 l0 242 l-244 0 l0 -242 ZM1581 737 l127 144 l270 -205 q-9 -12 -28 -24.5 q-19 -12.5 -52 -18.5 l0 -527 q0 -88 -23.5 -150.5 q-23.5 -62.5 -98 -100 q-74.5 -37.5 -228.5 -50.5 q-4 66 -12.5 113 q-8.5 47 -30.5 78 q-21 29 -54.5 51.5 q-33.5 22.5 -107.5 36.5 l0 6 q-33 -11 -73.5 -20 q-40.5 -9 -75.5 -9 l-47 0 l0 101 l-244 0 l0 -56 q0 -11 -34.5 -30 q-34.5 -19 -87.5 -34 q-53 -15 -107 -15 l-37 0 l0 596 l274 -105 l215 0 l119 125 l246 -180 q-9 -12 -27 -23.5 q-18 -11.5 -47 -17.5 l0 -293 q0 -9 -35 -23 q42 -3 99.5 -5.5 q57.5 -2.5 83.5 -2.5 q37 0 37 37 l0 545 l-1141 0 l0 -778 q0 -15 -37 -37 q-37 -22 -94 -40 q-57 -18 -117 -18 l-43 0 l0 1049 l313 -119 l1098 0 ZM782 967 l498 0 l0 241 l-498 0 l0 -241 ZM1331 809 l-51 0 l0 100 l-498 0 l0 -41 q0 -11 -37.5 -31.5 q-37.5 -20.5 -95.5 -37.5 q-58 -17 -119 -17 l-38 0 l0 598 l303 -114 l465 0 l126 141 l271 -203 q-9 -11 -28.5 -24 q-19.5 -13 -51.5 -19 l0 -295 q-1 -7 -43 -20.5 q-42 -13.5 -99.5 -25 q-57.5 -11.5 -103.5 -11.5 ZM1538 1485 l162 201 q0 0 30 -22 q30 -22 76 -56.5 q46 -34.5 96.5 -73.5 q50.5 -39 92.5 -74 q-9 -33 -60 -33 l-1849 0 l-16 58 l845 0 q-13 74 -54 142.5 q-41 68.5 -89 111.5 l12 10 q160 18 250.5 -7 q90.5 -25 125.5 -72.5 q35 -47.5 25 -99 q-10 -51.5 -50 -85.5 l403 0 Z" /><glyph glyph-name="cid09514" unicode="&#x4e0a;" d="M1520 -27 l172 220 q0 0 31 -24 q31 -24 79.5 -61.5 q48.5 -37.5 101.5 -79.5 q53 -42 97 -79 q-9 -33 -62 -33 l-1871 0 l-17 57 l740 0 l0 1745 l403 -37 q-3 -23 -18 -38 q-15 -15 -58 -21 l0 -694 l266 0 l168 217 q0 0 30.5 -23.5 q30.5 -23.5 78 -60.5 q47.5 -37 99 -79 q51.5 -42 93.5 -79 q-8 -33 -59 -33 l-676 0 l0 -897 l402 0 Z" /><glyph glyph-name="cid09516" unicode="&#x4e0b;" d="M1530 1542 l172 221 q0 0 31.5 -24 q31.5 -24 80.5 -62 q49 -38 102 -80.5 q53 -42.5 97 -78.5 q-9 -33 -63 -33 l-809 0 l0 -355 q254 -36 416 -108.5 q162 -72.5 246.5 -161 q84.5 -88.5 105 -173 q20.5 -84.5 -9 -146.5 q-29.5 -62 -96 -82 q-66.5 -20 -154.5 22 q-59 105 -142 211.5 q-83 106.5 -178 205.5 q-95 99 -188 181 l0 -1185 q0 -11 -32 -32 q-32 -21 -89.5 -39 q-57.5 -18 -136.5 -18 l-60 0 l0 1680 l-755 0 l-17 57 l1479 0 Z" /><glyph glyph-name="cid09519" unicode="&#x4e0d;" d="M1090 1104 l141 -53 q-5 -14 -19 -24.5 q-14 -10.5 -45 -14.5 l0 -1145 q-2 -8 -40.5 -23 q-38.5 -15 -94.5 -27 q-56 -12 -110 -12 l-58 0 l0 1004 q-164 -186 -368 -344.5 q-204 -158.5 -439 -271.5 l-12 16 q153 126 289.5 280.5 q136.5 154.5 249 324 q112.5 169.5 192.5 340.5 q80 171 119 329 l-807 0 l-16 57 l1439 0 l170 215 q0 0 31 -23.5 q31 -23.5 79 -60 q48 -36.5 100.5 -78 q52.5 -41.5 95.5 -77.5 q-9 -33 -62 -33 l-637 0 q-78 -193 -198 -379 ZM1214 946 l17 15 q243 -35 398 -103.5 q155 -68.5 237 -151.5 q82 -83 103.5 -162.5 q21.5 -79.5 -4 -138 q-25.5 -58.5 -86 -77.5 q-60.5 -19 -140.5 20 q-55 106 -141 215.5 q-86 109.5 -186.5 208.5 q-100.5 99 -197.5 174 Z" /><glyph glyph-name="cid09530" unicode="&#x4e13;" d="M1532 1008 l156 213 q0 0 28.5 -23.5 q28.5 -23.5 73 -60.5 q44.5 -37 92.5 -78 q48 -41 86 -76 q-9 -33 -59 -33 l-957 0 q-23 -80 -45 -153.5 q-22 -73.5 -41 -132.5 l443 0 l166 157 l268 -258 q-20 -25 -84 -31 q-85 -73 -207 -159.5 q-122 -86.5 -242 -157.5 q133 -61 192.5 -139.5 q59.5 -78.5 57.5 -150 q-2 -71.5 -54.5 -112.5 q-52.5 -41 -141.5 -26 q-67 72 -160.5 145 q-93.5 73 -201 139 q-107.5 66 -219 119 q-111.5 53 -214.5 86 l10 23 q212 17 372 1 q160 -16 275 -54 q51 86 100 182.5 q49 96.5 85 177.5 l-451 0 l-108 -131 l-283 166 q14 12 33 25.5 q19 13.5 39 25.5 q21 54 44 120 q23 66 46 138 l-543 0 l-16 58 l575 0 q26 79 50.5 163.5 q24.5 84.5 45.5 165.5 l-536 0 l-17 58 l570 0 q31 116 54 217 q23 101 34 164 l385 -111 q-8 -18 -28.5 -33 q-20.5 -15 -61.5 -10 l-64 -227 l293 0 l150 198 q0 0 27 -21.5 q27 -21.5 69 -56 q42 -34.5 87.5 -73 q45.5 -38.5 82.5 -72.5 q-9 -33 -57 -33 l-668 0 q-44 -160 -94 -329 l563 0 Z" /><glyph glyph-name="cid09541" unicode="&#x4e1c;" d="M494 639 l362 -209 q-9 -17 -32 -24.5 q-23 -7.5 -60 0.5 q-149 -180 -330 -299 q-181 -119 -379 -193 l-16 16 q80 80 164 192.5 q84 112.5 159.5 245 q75.5 132.5 131.5 271.5 ZM1358 602 l16 12 q210 -44 337.5 -118 q127.5 -74 187 -158 q59.5 -84 64 -161 q4.5 -77 -32 -129 q-36.5 -52 -101 -61.5 q-64.5 -9.5 -141.5 42.5 q-32 100 -85.5 202 q-53.5 102 -117.5 197 q-64 95 -127 174 ZM1499 1378 l170 221 q0 0 31 -24 q31 -24 79.5 -61.5 q48.5 -37.5 101 -80 q52.5 -42.5 95.5 -79.5 q-9 -33 -61 -33 l-1094 0 q-58 -132 -119.5 -268 q-61.5 -136 -107.5 -236 l326 0 l0 361 l372 -31 q-6 -41 -63 -49 l0 -281 l192 0 l164 213 q0 0 30 -23 q30 -23 76 -59.5 q46 -36.5 96 -77.5 q50 -41 91 -77 q-5 -17 -21.5 -25 q-16.5 -8 -37.5 -8 l-590 0 l0 -619 q0 -100 -25 -168.5 q-25 -68.5 -103.5 -108 q-78.5 -39.5 -240.5 -52.5 q-4 70 -14 120.5 q-10 50.5 -35 83.5 q-23 33 -59.5 56 q-36.5 23 -116.5 39 l0 24 q0 0 31.5 -2 q31.5 -2 75.5 -4 q44 -2 83.5 -4 q39.5 -2 55.5 -2 q23 0 31 7 q8 7 8 24 l0 606 l-342 0 l-78 -86 l-279 160 q11 10 28 23 q17 13 36 26 q46 86 101 202 q55 116 108 236 l-410 0 l-16 57 l450 0 q49 117 88.5 220 q39.5 103 59.5 167 l378 -106 q-6 -20 -27.5 -35 q-21.5 -15 -64.5 -10 q-21 -46 -48 -107 q-27 -61 -56 -129 l651 0 Z" /><glyph glyph-name="cid09542" unicode="&#x4e1d;" d="M1104 754 l-125 299 q0 0 26.5 9.5 q26.5 9.5 45.5 22.5 q37 38 81 116 q44 78 85.5 174 q41.5 96 73 192 q31.5 96 44.5 170 l383 -150 q-6 -15 -23 -26 q-17 -11 -46 -11 q-56 -81 -135 -172 q-79 -91 -169 -177 q-90 -86 -176 -150 q66 0 148 1 q82 1 168 3 q43 75 75.5 145.5 q32.5 70.5 51.5 130.5 l346 -201 q-8 -15 -29 -24 q-21 -9 -53 -4 q-69 -95 -179 -208.5 q-110 -113.5 -238.5 -222 q-128.5 -108.5 -252.5 -190.5 q137 -1 328 0.5 q191 1.5 395 5.5 l0 -26 q-112 -43 -311 -109 q-199 -66 -453 -135 q-16 -27 -47 -41 l-135 301 q0 0 34 10 q34 10 54 25 q75 57 170.5 177.5 q95.5 120.5 181.5 258.5 q-53 -27 -115.5 -57 q-62.5 -30 -131.5 -60 q-30 -58 -72 -77 ZM240 152 l-127 307 q0 0 36 10 q36 10 58 29 q51 41 113 113.5 q62 72.5 127 164 q65 91.5 124 191.5 q-56 -30 -129.5 -65.5 q-73.5 -35.5 -156.5 -72.5 q-28 -64 -74 -84 l-125 299 q0 0 27.5 9.5 q27.5 9.5 44.5 23.5 q40 38 87.5 115.5 q47.5 77.5 93 174.5 q45.5 97 79.5 193 q34 96 49 171 l383 -152 q-6 -15 -23.5 -26 q-17.5 -11 -48.5 -11 q-57 -81 -138.5 -171.5 q-81.5 -90.5 -173.5 -176 q-92 -85.5 -181 -150.5 q72 0 158.5 1.5 q86.5 1.5 177.5 3.5 q55 99 98.5 194 q43.5 95 66.5 172 l347 -211 q-10 -15 -31.5 -25 q-21.5 -10 -54.5 -3 q-53 -80 -132.5 -173 q-79.5 -93 -174.5 -189 q-95 -96 -197 -185 q-102 -89 -201 -160 q120 2 276 5 q156 3 320 9 l2 -24 q-94 -42 -259 -108.5 q-165 -66.5 -376 -137.5 q-27 -46 -65 -61 ZM1524 23 l166 204 q0 0 30 -22 q30 -22 77 -57 q47 -35 98 -75 q51 -40 94 -75 q-9 -33 -60 -33 l-1839 0 l-16 58 l1450 0 Z" /><glyph glyph-name="cid09559" unicode="&#x4e2a;" d="M850 1118 l403 -35 q-3 -21 -17.5 -37 q-14.5 -16 -57.5 -22 l0 -1133 q0 -12 -41.5 -32.5 q-41.5 -20.5 -103.5 -37 q-62 -16.5 -126 -16.5 l-57 0 l0 1313 ZM1067 1556 q-58 -122 -154.5 -254 q-96.5 -132 -226.5 -256 q-130 -124 -289.5 -227.5 q-159.5 -103.5 -343.5 -169.5 l-10 19 q136 100 253 230 q117 130 211 275.5 q94 145.5 161 294.5 q67 149 104 289 l432 -121 q-6 -23 -28.5 -35 q-22.5 -12 -79.5 -20 q94 -131 235 -240.5 q141 -109.5 315 -191.5 q174 -82 365 -131 l-2 -31 q-95 -37 -144.5 -121.5 q-49.5 -84.5 -72.5 -175.5 q-258 131 -439.5 352 q-181.5 221 -285.5 514 Z" /><glyph glyph-name="cid09562" unicode="&#x4e2d;" d="M1182 680 l389 0 l0 551 l-389 0 l0 -551 ZM479 680 l385 0 l0 551 l-385 0 l0 -551 ZM1688 1438 l280 -213 q-9 -13 -28 -26 q-19 -13 -52 -19 l0 -660 q-1 -8 -45 -24.5 q-44 -16.5 -105 -30.5 q-61 -14 -112 -14 l-55 0 l0 172 l-389 0 l0 -709 q0 -15 -39.5 -41 q-39.5 -26 -99 -47 q-59.5 -21 -119.5 -21 l-60 0 l0 818 l-385 0 l0 -107 q0 -15 -40 -39 q-40 -24 -102 -42.5 q-62 -18.5 -126 -18.5 l-45 0 l0 999 l336 -127 l362 0 l0 461 l393 -37 q-3 -21 -17.5 -37 q-14.5 -16 -57.5 -22 l0 -365 l370 0 l136 150 Z" /><glyph glyph-name="cid09602" unicode="&#x4e48;" d="M760 1772 l414 -181 q-21 -43 -93 -35 q-196 -354 -445 -584 q-249 -230 -556 -380 l-17 16 q128 131 260.5 316.5 q132.5 185.5 247 402.5 q114.5 217 189.5 445 ZM1278 606 l18 12 q229 -76 367.5 -177 q138.5 -101 203 -207 q64.5 -106 69.5 -198 q5 -92 -34.5 -151 q-39.5 -59 -109 -67 q-69.5 -8 -152.5 55 q-15 75 -41.5 151.5 q-26.5 76.5 -60.5 151.5 q-189 -55 -461 -121 q-272 -66 -616 -137 q-19 -24 -41 -39 q-22 -15 -45 -22 l-105 379 q0 0 22 5.5 q22 5.5 50.5 15.5 q28.5 10 46.5 24 q68 43 151.5 128.5 q83.5 85.5 171.5 197 q88 111.5 169.5 234 q81.5 122.5 144.5 240.5 q63 118 96 215 l406 -209 q-9 -16 -32.5 -27.5 q-23.5 -11.5 -61.5 -8.5 q-68 -98 -172 -209 q-104 -111 -228.5 -223 q-124.5 -112 -257.5 -213.5 q-133 -101.5 -258 -180.5 q181 0 441.5 5.5 q260.5 5.5 545.5 13.5 q-49 98 -107.5 190 q-58.5 92 -119.5 172 Z" /><glyph glyph-name="cid09633" unicode="&#x4e5f;" d="M1843 539 l8 -346 q82 -27 113 -55.5 q31 -28.5 31 -69.5 q0 -59 -33 -98.5 q-33 -39.5 -117 -63.5 q-84 -24 -235.5 -34.5 q-151.5 -10.5 -388.5 -10.5 l-375 0 q-169 0 -279 19.5 q-110 19.5 -163.5 85 q-53.5 65.5 -53.5 202.5 l0 739 l-282 -92 l-35 49 l317 105 l0 620 l365 -37 q-2 -20 -19 -35.5 q-17 -15.5 -55 -21.5 l0 -430 l246 80 l0 598 l373 -33 q-4 -21 -18.5 -37 q-14.5 -16 -57.5 -22 l0 -408 l282 94 l146 138 l246 -207 q-11 -14 -30.5 -24.5 q-19.5 -10.5 -51.5 -14.5 q-5 -197 -14 -332 q-9 -135 -25 -222.5 q-16 -87.5 -43 -139.5 q-27 -52 -68 -82 q-49 -39 -111.5 -60.5 q-62.5 -21.5 -150.5 -21.5 q0 70 -6 124.5 q-6 54.5 -25 82.5 q-21 30 -54 53 q-33 23 -87 39 l0 22 q38 -3 92 -5.5 q54 -2.5 80 -2.5 q21 0 33.5 4.5 q12.5 4.5 21.5 11.5 q31 28 44.5 163.5 q13.5 135.5 21.5 418.5 l-301 -98 l0 -793 q0 -12 -37 -32 q-37 -20 -93.5 -36 q-56.5 -16 -113.5 -16 l-53 0 l0 778 l-246 -81 l0 -754 q0 -62 44 -82.5 q44 -20.5 146 -20.5 l414 0 q95 0 173.5 2 q78.5 2 127.5 5 q76 5 113 45 q31 40 69 117 q38 77 95 223 l20 0 Z" /><glyph glyph-name="cid09687" unicode="&#x4e86;&#xf9ba;" d="M1636 1704 l277 -240 q-23 -25 -88 -30 q-125 -80 -279.5 -165.5 q-154.5 -85.5 -312.5 -156.5 l20 -2 q-5 -44 -69 -55 l0 -897 q0 -103 -29 -174.5 q-29 -71.5 -119 -114 q-90 -42.5 -272 -57.5 q-9 73 -24.5 125 q-15.5 52 -53.5 88 q-38 35 -92 60.5 q-54 25.5 -168 45.5 l0 25 q0 0 34.5 -2 q34.5 -2 87.5 -5.5 q53 -3.5 109.5 -6.5 q56.5 -3 102 -5 q45.5 -2 63.5 -2 q47 0 47 41 l0 967 l244 -21 q92 85 181.5 185 q89.5 100 152.5 180 l-1227 0 l-18 57 l1263 0 l170 160 Z" /><glyph glyph-name="cid09695" unicode="&#x4e8e;" d="M1532 920 l166 206 q0 0 30 -22 q30 -22 77 -57.5 q47 -35.5 98.5 -76 q51.5 -40.5 93.5 -75.5 q-3 -17 -20 -25 q-17 -8 -40 -8 l-751 0 l0 -688 q0 -100 -28.5 -178 q-28.5 -78 -115 -126.5 q-86.5 -48.5 -260.5 -59.5 q-3 76 -17 131.5 q-14 55.5 -48 91.5 q-31 34 -79 59.5 q-48 25.5 -153 42.5 l0 25 q0 0 44 -2.5 q44 -2.5 105 -6 q61 -3.5 116 -6 q55 -2.5 77 -2.5 q45 0 45 41 l0 678 l-802 0 l-17 58 l819 0 l0 548 l-632 0 l-17 58 l1174 0 l162 203 q0 0 29.5 -22.5 q29.5 -22.5 75 -57.5 q45.5 -35 96 -74 q50.5 -39 91.5 -74 q-9 -33 -59 -33 l-606 0 l0 -548 l346 0 Z" /><glyph glyph-name="cid09745" unicode="&#x4eab;" d="M713 967 l612 0 l0 233 l-612 0 l0 -233 ZM729 1257 l576 0 l129 144 l276 -205 q-9 -12 -28.5 -24.5 q-19.5 -12.5 -51.5 -20.5 l0 -266 q-1 -7 -44 -21.5 q-43 -14.5 -102 -26.5 q-59 -12 -106 -12 l-53 0 l0 84 l-612 0 l0 -39 q0 -12 -39 -33 q-39 -21 -98 -38 q-59 -17 -119 -17 l-41 0 l0 592 l313 -117 ZM94 1401 l-16 57 l852 0 q-6 3 -12.5 6.5 q-6.5 3.5 -12.5 8.5 q-7 76 -43.5 151.5 q-36.5 75.5 -81.5 124.5 l13 10 q165 6 254 -28 q89 -34 117.5 -86.5 q28.5 -52.5 11.5 -104.5 q-17 -52 -64 -82 l444 0 l152 209 q0 0 28 -22.5 q28 -22.5 71 -58.5 q43 -36 89.5 -76.5 q46.5 -40.5 83.5 -75.5 q-4 -17 -20.5 -25 q-16.5 -8 -38.5 -8 l-1827 0 ZM1577 373 l152 200 q0 0 27.5 -22 q27.5 -22 70.5 -56.5 q43 -34.5 90.5 -73.5 q47.5 -39 85.5 -73 q-3 -17 -19.5 -25 q-16.5 -8 -39.5 -8 l-777 0 l0 -182 q0 -99 -27 -167 q-27 -68 -111 -107.5 q-84 -39.5 -255 -53.5 q-6 70 -18.5 118.5 q-12.5 48.5 -42.5 82.5 q-29 31 -72.5 54 q-43.5 23 -138.5 40 l0 25 q0 0 41 -2.5 q41 -2.5 98 -6 q57 -3.5 106.5 -5.5 q49.5 -2 67.5 -2 q37 0 37 32 l0 174 l-786 0 l-17 58 l803 0 l0 217 l293 -23 q138 58 250 117 l-1145 0 l-19 57 l1239 0 l164 146 l252 -240 q-14 -14 -32 -19.5 q-18 -5.5 -54 -6.5 q-84 -24 -190.5 -45.5 q-106.5 -21.5 -220.5 -39.5 q-114 -18 -222 -32 l0 -131 l410 0 Z" /><glyph glyph-name="cid09751" unicode="&#x4eae;" d="M112 1427 l-16 58 l862 0 q-20 72 -67 140.5 q-47 68.5 -95 111.5 l13 10 q166 25 259.5 2 q93.5 -23 129 -72 q35.5 -49 24.5 -103 q-11 -54 -55 -89 l418 0 l147 205 q0 0 27.5 -22.5 q27.5 -22.5 69.5 -58 q42 -35.5 87.5 -75 q45.5 -39.5 82.5 -74.5 q-9 -33 -60 -33 l-1827 0 ZM766 1004 l577 0 l0 217 l-577 0 l0 -217 ZM1396 854 l-53 0 l0 92 l-577 0 l0 -31 q0 -12 -39 -32.5 q-39 -20.5 -97.5 -37 q-58.5 -16.5 -117.5 -16.5 l-41 0 l0 566 l309 -117 l543 0 l129 141 l272 -202 q-9 -11 -28 -24 q-19 -13 -52 -19 l0 -263 q-1 -6 -43.5 -19.5 q-42.5 -13.5 -100 -25.5 q-57.5 -12 -104.5 -12 ZM1880 389 l6 -231 q51 -25 65.5 -52 q14.5 -27 14.5 -65 q0 -85 -85.5 -125.5 q-85.5 -40.5 -283.5 -40.5 l-147 0 q-107 0 -159 21 q-52 21 -68.5 71 q-16.5 50 -16.5 139 l0 367 l-276 0 l0 -16 q0 -50 -14 -117.5 q-14 -67.5 -56.5 -142.5 q-42.5 -75 -127 -148.5 q-84.5 -73.5 -224 -135.5 q-139.5 -62 -349.5 -103 l-6 14 q149 74 238 158 q89 84 134 169 q45 85 60 163.5 q15 78.5 15 142.5 l0 196 l375 -123 l206 0 l140 152 l243 -195 q-18 -24 -63 -32 l0 -285 q0 -17 6.5 -23 q6.5 -6 34.5 -6 l96 0 l76 0 q14 2 24 6.5 q10 4.5 19 18.5 q36 49 104 223 l19 0 ZM1761 932 l250 -238 q-21 -24 -80 -26 q-41 -35 -97 -77 q-56 -42 -114.5 -82.5 q-58.5 -40.5 -108.5 -70.5 l-14 13 q9 55 19 133.5 q10 78.5 16 144.5 l-1239 0 q23 -121 -11 -204 q-34 -83 -96 -115 q-61 -31 -126 -8 q-65 23 -85 94 q-18 69 17.5 116 q35.5 47 93.5 72 q46 29 84.5 94 q38.5 65 26.5 144 l24 2 q19 -37 33.5 -71 q14.5 -34 24.5 -67 l1237 0 l145 146 Z" /><glyph glyph-name="cid09780" unicode="&#x4ec0;&#xf9fd;" d="M455 1753 l409 -127 q-6 -20 -26.5 -32 q-20.5 -12 -57.5 -11 q-47 -117 -102 -221 q-55 -104 -115 -195 l115 -43 q-5 -13 -19 -23.5 q-14 -10.5 -45 -17.5 l0 -1194 q-2 -11 -37.5 -31 q-35.5 -20 -90.5 -36.5 q-55 -16.5 -113 -16.5 l-56 0 l0 1065 q-124 -120 -268 -213 l-20 17 q87 129 170 303.5 q83 174.5 150 373.5 q67 199 106 402 ZM1581 989 l158 213 q0 0 28.5 -23.5 q28.5 -23.5 72.5 -60 q44 -36.5 92 -77.5 q48 -41 87 -76 q-9 -33 -59 -33 l-487 0 l0 -1004 q0 -14 -39 -39 q-39 -25 -97.5 -45 q-58.5 -20 -117.5 -20 l-60 0 l0 1108 l-438 0 l-16 57 l454 0 l0 723 l389 -37 q-3 -21 -17.5 -37 q-14.5 -16 -57.5 -22 l0 -627 l108 0 Z" /><glyph glyph-name="cid09793" unicode="&#x4eca;" d="M1393 637 l147 151 l266 -239 q-24 -30 -102 -39 q-42 -68 -101 -158 q-59 -90 -125.5 -188 q-66.5 -98 -132.5 -192.5 q-66 -94.5 -122 -170.5 q-66 -7 -144.5 8.5 q-78.5 15.5 -169.5 73.5 q81 110 167.5 234.5 q86.5 124.5 166.5 244.5 q80 120 141 218 l-1046 0 l-19 57 l1074 0 ZM793 1124 l16 11 q167 -24 262 -76.5 q95 -52.5 132 -116 q37 -63.5 28.5 -122.5 q-8.5 -59 -49 -97.5 q-40.5 -38.5 -100.5 -41.5 q-60 -3 -126 48 q-12 106 -59.5 211.5 q-47.5 105.5 -103.5 183.5 ZM831 1769 l420 -106 q-6 -23 -30 -34 q-24 -11 -78 -17 q69 -116 170 -207 q101 -91 220 -161 q119 -70 244.5 -123 q125.5 -53 243.5 -93 l-2 -33 q-63 -16 -111 -59 q-48 -43 -79 -99 q-31 -56 -43 -110 q-151 96 -284 220 q-133 124 -235 282.5 q-102 158.5 -157 357.5 q-78 -141 -196.5 -279.5 q-118.5 -138.5 -262.5 -263.5 q-144 -125 -302 -228.5 q-158 -103.5 -316 -174.5 l-15 23 q132 99 263 235 q131 136 244.5 289 q113.5 153 194.5 303.5 q81 150.5 111 277.5 Z" /><glyph glyph-name="cid09800" unicode="&#x4ece;" d="M1163 1706 l393 -35 q-5 -48 -75 -59 q13 -346 65 -621 q52 -275 164 -478 q112 -203 303 -333 l-2 -24 q-104 -28 -172.5 -122 q-68.5 -94 -91.5 -227 q-92 118 -149 302.5 q-57 184.5 -87.5 416 q-30.5 231.5 -44.5 490.5 q-13 -201 -55 -376.5 q-42 -175.5 -132.5 -326.5 q-90.5 -151 -249 -277 q-158.5 -126 -406.5 -226 l-17 26 q169 128 275 267.5 q106 139.5 166 295.5 q-43 -53 -114.5 -58.5 q-71.5 -5.5 -150.5 65.5 q-1 89 -18.5 179.5 q-17.5 90.5 -46.5 176.5 q-35 -185 -108.5 -355.5 q-73.5 -170.5 -204.5 -321.5 q-131 -151 -338 -278 l-21 27 q165 204 250 423 q85 219 116 453.5 q31 234.5 33 483.5 q2 249 2 512 l398 -35 q-6 -46 -76 -57 q-3 -171 -6 -337 q-3 -166 -19 -325 q129 -59 205.5 -131.5 q76.5 -72.5 110 -147 q33.5 -74.5 33.5 -138.5 q44 163 58 346.5 q14 183.5 13.5 389 q-0.5 205.5 -0.5 435.5 Z" /><glyph glyph-name="cid09911" unicode="&#x4f1a;" d="M1499 664 l156 196 q0 0 28.5 -21.5 q28.5 -21.5 72.5 -55.5 q44 -34 92.5 -72 q48.5 -38 88.5 -72 q-9 -33 -59 -33 l-965 0 l277 -153 q-18 -36 -76 -27 q-65 -49 -161 -103.5 q-96 -54.5 -205 -105 q-109 -50.5 -216 -88.5 q171 -2 410 -1.5 q239 0.5 502 3.5 q-54 80 -114 155 q-60 75 -116 138 l19 12 q211 -45 341.5 -117.5 q130.5 -72.5 195 -154.5 q64.5 -82 75 -157 q10.5 -75 -20 -127 q-30.5 -52 -90.5 -64.5 q-60 -12.5 -135 32.5 q-21 54 -50.5 110 q-29.5 56 -63.5 112 q-186 -45 -448 -97.5 q-262 -52.5 -586 -107.5 q-30 -38 -66 -53 l-121 329 q0 0 33.5 7 q33.5 7 54.5 18 q58 23 124 72.5 q66 49.5 131 113.5 q65 64 120 130.5 q55 66.5 90 123.5 l-647 0 l-16 58 l1345 0 ZM1155 1004 l135 165 q0 0 42 -31 q42 -31 99 -75 q57 -44 103 -84 q-6 -33 -57 -33 l-942 0 l-17 58 l637 0 ZM842 1765 l407 -102 q-6 -22 -30 -33.5 q-24 -11.5 -76 -15.5 q70 -92 171.5 -163 q101.5 -71 220 -123.5 q118.5 -52.5 241 -91 q122.5 -38.5 233.5 -65.5 l-2 -32 q-89 -26 -145 -106.5 q-56 -80.5 -70 -160.5 q-148 78 -281.5 181.5 q-133.5 103.5 -237.5 236 q-104 132.5 -163 299.5 q-76 -120 -192 -237 q-116 -117 -258 -222.5 q-142 -105.5 -296.5 -192 q-154.5 -86.5 -308.5 -144.5 l-12 22 q131 85 259.5 202.5 q128.5 117.5 239.5 249 q111 131.5 190 260.5 q79 129 110 238 Z" /><glyph glyph-name="cid09919" unicode="&#x4f20;" d="M518 1155 l98 -35 q-4 -14 -18 -24.5 q-14 -10.5 -45 -16.5 l0 -1194 q-2 -11 -38 -31 q-36 -20 -90.5 -36.5 q-54.5 -16.5 -113.5 -16.5 l-55 0 l0 1024 q-48 -47 -98.5 -89 q-50.5 -42 -104.5 -81 l-20 15 q75 132 146.5 308 q71.5 176 129 374 q57.5 198 88.5 397 l414 -119 q-8 -20 -27.5 -31.5 q-19.5 -11.5 -56.5 -11.5 q-46 -121 -97.5 -229 q-51.5 -108 -111.5 -203 ZM1622 983 l143 197 q0 0 27 -22 q27 -22 68.5 -56 q41.5 -34 86 -72.5 q44.5 -38.5 81.5 -71.5 q-9 -32 -60 -32 l-735 0 q-22 -79 -42 -151 q-20 -72 -38 -132 l322 0 l167 162 l277 -264 q-23 -26 -86 -31 q-71 -69 -171.5 -148.5 q-100.5 -79.5 -203.5 -148.5 q122 -61 173.5 -136.5 q51.5 -75.5 46.5 -142 q-5 -66.5 -55.5 -102.5 q-50.5 -36 -133.5 -16 q-73 92 -187.5 184.5 q-114.5 92.5 -245 170 q-130.5 77.5 -251.5 124.5 l12 20 q174 7 308.5 -11 q134.5 -18 232.5 -50 q35 81 68.5 169.5 q33.5 88.5 56.5 162.5 l-332 0 l-104 -125 l-271 155 q14 13 32 26 q18 13 40 26 q18 53 39 119.5 q21 66.5 41 138.5 l-348 0 l-17 57 l381 0 q23 81 45.5 165.5 q22.5 84.5 42.5 166.5 l-334 0 l-16 57 l365 0 q27 117 48.5 217 q21.5 100 30.5 164 l373 -78 q-6 -18 -25 -33.5 q-19 -15.5 -61 -15.5 q-12 -51 -28.5 -115.5 q-16.5 -64.5 -34.5 -138.5 l180 0 l135 182 q0 0 25 -20 q25 -20 64 -51.5 q39 -31.5 81 -67.5 q42 -36 76 -67 q-6 -33 -58 -33 l-518 0 q-21 -80 -43 -164.5 q-22 -84.5 -45 -167.5 l375 0 Z" /><glyph glyph-name="cid09944" unicode="&#x4f34;" d="M1526 1092 l-25 14 q19 61 39 146 q20 85 39.5 178.5 q19.5 93.5 36.5 181.5 l358 -135 q-17 -42 -86 -39 q-80 -99 -173.5 -189.5 q-93.5 -90.5 -188.5 -156.5 ZM739 1571 l19 8 q144 -54 221.5 -122 q77.5 -68 103 -136.5 q25.5 -68.5 11.5 -125.5 q-14 -57 -55 -89.5 q-41 -32.5 -96.5 -28 q-55.5 4.5 -111.5 59.5 q0 112 -28 226 q-28 114 -64 208 ZM496 1120 l157 -57 q-4 -15 -18 -25 q-14 -10 -45 -16 l0 -1139 q-1 -11 -37 -30.5 q-36 -19.5 -91 -35.5 q-55 -16 -114 -16 l-55 0 l0 1067 q-108 -111 -238 -202 l-22 14 q81 131 158 305 q77 174 139 371 q62 197 98 397 l393 -117 q-7 -20 -27.5 -32 q-20.5 -12 -56.5 -11 q-50 -133 -111 -251.5 q-61 -118.5 -130 -221.5 ZM1587 526 l154 211 q0 0 27.5 -23 q27.5 -23 70.5 -59 q43 -36 90 -77 q47 -41 84 -76 q-9 -33 -59 -33 l-510 0 l0 -557 q0 -14 -37 -38 q-37 -24 -93 -43 q-56 -19 -112 -19 l-55 0 l0 657 l-485 0 l-17 57 l502 0 l0 396 l-440 0 l-17 57 l457 0 l0 758 l373 -35 q-3 -23 -18 -38 q-15 -15 -58 -22 l0 -663 l123 0 l145 190 q0 0 26.5 -20.5 q26.5 -20.5 67.5 -53.5 q41 -33 86 -70.5 q45 -37.5 82 -70.5 q-9 -32 -57 -32 l-473 0 l0 -396 l143 0 Z" /><glyph glyph-name="cid10008" unicode="&#x4f60;" d="M514 1163 l131 -49 q-4 -14 -18.5 -24.5 q-14.5 -10.5 -44.5 -16.5 l0 -1179 q-2 -11 -38 -30.5 q-36 -19.5 -91 -35.5 q-55 -16 -113 -16 l-55 0 l0 1058 q-56 -56 -115.5 -108 q-59.5 -52 -124.5 -96 l-22 14 q80 131 157.5 305 q77.5 174 139.5 371 q62 197 98 397 l393 -117 q-8 -20 -28.5 -32 q-20.5 -12 -55.5 -11 q-46 -121 -99.5 -228 q-53.5 -107 -113.5 -202 ZM1188 1262 l364 -31 q-6 -46 -71 -57 l0 -1031 q0 -99 -24 -168.5 q-24 -69.5 -101 -111 q-77 -41.5 -236 -56.5 q-6 73 -16.5 125.5 q-10.5 52.5 -36.5 85.5 q-26 36 -65.5 59.5 q-39.5 23.5 -120.5 39.5 l0 26 q0 0 34 -1.5 q34 -1.5 82 -4 q48 -2.5 90.5 -4.5 q42.5 -2 59.5 -2 q41 0 41 33 l0 655 q-24 -10 -53 -10 q-94 -209 -219.5 -369 q-125.5 -160 -276.5 -268 l-25 16 q51 96 98 222 q47 126 86 267.5 q39 141.5 62 283.5 l328 -101 l0 402 ZM1528 926 l20 10 q174 -85 274.5 -183.5 q100.5 -98.5 141.5 -195 q41 -96.5 35 -175.5 q-6 -79 -46 -126.5 q-40 -47.5 -102 -48 q-62 -0.5 -131 62.5 q-14 166 -71 337 q-57 171 -121 319 ZM1774 1485 l254 -240 q-22 -24 -82 -26 q-59 -62 -148.5 -135.5 q-89.5 -73.5 -171.5 -120.5 l-14 12 q11 66 20.5 150 q9.5 84 14.5 155 l-574 0 q-176 -250 -420 -406 l-22 17 q63 103 124.5 242.5 q61.5 139.5 112.5 297 q51 157.5 82 316.5 l377 -139 q-17 -45 -86 -39 q-29 -63 -61.5 -120.5 q-32.5 -57.5 -67.5 -111.5 l514 0 l148 148 Z" /><glyph glyph-name="cid10034" unicode="&#x4f73;" d="M727 1397 l373 0 l0 350 l366 -31 q-3 -18 -15.5 -31.5 q-12.5 -13.5 -49.5 -19.5 l0 -268 l106 0 l146 200 q0 0 26.5 -22 q26.5 -22 67 -56.5 q40.5 -34.5 84.5 -73.5 q44 -39 80 -73 q-9 -33 -58 -33 l-452 0 l0 -391 l180 0 l148 203 q0 0 26.5 -22 q26.5 -22 68 -57 q41.5 -35 86.5 -74.5 q45 -39.5 81 -73.5 q-3 -17 -19.5 -25 q-16.5 -8 -38.5 -8 l-1269 0 l-17 57 l453 0 l0 391 l-357 0 l-16 58 ZM541 1171 l110 -41 q-4 -15 -18.5 -24.5 q-14.5 -9.5 -44.5 -15.5 l0 -1192 q-2 -12 -38 -32 q-36 -20 -91 -36 q-55 -16 -113 -16 l-55 0 l0 1013 q-117 -132 -246 -231 l-22 14 q76 140 153.5 327.5 q77.5 187.5 143.5 398 q66 210.5 108 417.5 l397 -121 q-14 -46 -82 -43 q-92 -227 -202 -418 ZM1589 -47 l156 215 q0 0 28 -23.5 q28 -23.5 71.5 -60.5 q43.5 -37 91 -78.5 q47.5 -41.5 85.5 -77.5 q-9 -32 -59 -32 l-1319 0 l-16 57 l473 0 l0 489 l-387 0 l-17 58 l404 0 l0 383 l366 -31 q-3 -20 -15.5 -33.5 q-12.5 -13.5 -49.5 -19.5 l0 -299 l123 0 l149 205 q0 0 27 -22.5 q27 -22.5 69 -58 q42 -35.5 87 -75 q45 -39.5 81 -74.5 q-9 -33 -59 -33 l-477 0 l0 -489 l188 0 Z" /><glyph glyph-name="cid10129" unicode="&#x4faf;" d="M569 1083 l0 -1194 q-2 -11 -38 -31 q-36 -20 -90.5 -36.5 q-54.5 -16.5 -112.5 -16.5 l-56 0 l0 967 q-46 -54 -96.5 -103 q-50.5 -49 -103.5 -94 l-23 15 q75 145 145 337 q70 192 125.5 405.5 q55.5 213.5 86.5 424.5 l397 -104 q-6 -20 -25.5 -32.5 q-19.5 -12.5 -56.5 -12.5 q-40 -123 -87 -235 q-47 -112 -99 -212 l98 -37 q-5 -13 -19 -23.5 q-14 -10.5 -45 -17.5 ZM1929 459 l-504 0 q57 -102 203 -194 q146 -92 375 -144 l0 -27 q-108 -27 -163.5 -92 q-55.5 -65 -61.5 -199 q-116 70 -194.5 181 q-78.5 111 -126 233.5 q-47.5 122.5 -71.5 226.5 q-38 -138 -125.5 -255.5 q-87.5 -117.5 -250.5 -214 q-163 -96.5 -430 -171.5 l-17 27 q177 91 283.5 190.5 q106.5 99.5 161.5 209 q55 109.5 77 229.5 l-460 0 l-17 57 l486 0 q10 78 12 162.5 q2 84.5 4 173.5 l-109 0 q-137 -196 -323 -309 l-23 16 q54 112 98.5 273 q44.5 161 65.5 325 l-186 0 l-17 57 l725 0 l43 330 l-555 0 l-18 58 l561 0 l105 120 l260 -184 q-22 -25 -74 -33 l-37 -291 l21 0 l125 189 q0 0 22.5 -21 q22.5 -21 57.5 -54 q35 -33 73 -70 q38 -37 68 -68 q-9 -33 -56 -33 l-1112 0 l353 -104 q-14 -43 -80 -43 q-14 -26 -28 -51 q-14 -25 -30 -50 l402 0 l151 187 q0 0 27 -20 q27 -20 69.5 -52 q42.5 -32 89.5 -68.5 q47 -36.5 87 -70.5 q-9 -33 -60 -33 l-366 0 q-5 -91 -12.5 -174.5 q-7.5 -83.5 -22.5 -161.5 l166 0 l149 195 q0 0 27.5 -21.5 q27.5 -21.5 69.5 -55.5 q42 -34 88 -71.5 q46 -37.5 84 -70.5 q-9 -33 -60 -33 Z" /><glyph glyph-name="cid10203" unicode="&#x4fdd;" d="M1053 1546 l0 -481 l471 0 l0 481 l-471 0 ZM1917 662 l-457 0 q63 -102 153.5 -185.5 q90.5 -83.5 194.5 -146 q104 -62.5 207 -101.5 l-4 -22 q-80 -20 -137.5 -86.5 q-57.5 -66.5 -85.5 -175.5 q-135 113 -218.5 278.5 q-83.5 165.5 -133.5 380.5 l0 -719 q0 -8 -29.5 -27 q-29.5 -19 -83 -36 q-53.5 -17 -127.5 -17 l-55 0 l0 506 q-106 -115 -243 -210 q-137 -95 -300 -169 l-16 21 q150 134 258 324.5 q108 190.5 168 384.5 l-414 0 l-16 57 l446 0 l0 2 l117 0 l0 287 l-88 0 l0 -62 q0 -13 -37.5 -34.5 q-37.5 -21.5 -95.5 -38.5 q-58 -17 -119 -17 l-41 0 l0 741 q-24 -10 -55 -10 q-82 -221 -191 -401 l107 -39 q-7 -15 -21 -25 q-14 -10 -45 -16 l0 -1219 q-1 -10 -36.5 -29 q-35.5 -19 -89 -35 q-53.5 -16 -110.5 -16 l-53 0 l0 1055 q-109 -112 -231 -198 l-21 14 q78 131 151.5 306 q73.5 175 132.5 372.5 q59 197.5 93 396.5 l369 -115 l0 82 l305 -116 l436 0 l131 145 l277 -207 q-11 -14 -32 -27.5 q-21 -13.5 -56 -19.5 l0 -512 q-1 -7 -43 -22 q-42 -15 -99 -27 q-57 -12 -104 -12 l-51 0 l0 86 l-88 0 l0 -289 l112 0 l154 201 q0 0 28 -22.5 q28 -22.5 71 -57 q43 -34.5 90 -73.5 q47 -39 85 -73 q-9 -32 -59 -32 Z" /><glyph glyph-name="cid10290" unicode="&#x5012;" d="M449 1245 l86 -31 q-7 -15 -21 -24.5 q-14 -9.5 -45 -15.5 l0 -1295 q-1 -9 -34 -26.5 q-33 -17.5 -82.5 -32.5 q-49.5 -15 -100.5 -15 l-49 0 l0 1022 q-37 -44 -75.5 -86.5 q-38.5 -42.5 -80.5 -81.5 l-24 15 q60 137 114.5 314 q54.5 177 96 373.5 q41.5 196.5 63.5 389.5 l360 -113 q-13 -43 -82 -43 q-27 -93 -58.5 -180.5 q-31.5 -87.5 -67.5 -169.5 ZM1024 514 l0 -283 q71 10 144.5 19.5 q73.5 9.5 148.5 19.5 l2 -22 q-92 -62 -241 -145 q-149 -83 -373 -193 q-16 -44 -58 -51 l-151 313 q44 5 113 11.5 q69 6.5 155 17.5 l0 313 l-227 0 l-17 57 l244 0 l0 330 l317 -27 q-1 -15 -13 -27.5 q-12 -12.5 -44 -17.5 l0 -227 l92 141 q0 0 35 -32.5 q35 -32.5 81.5 -78.5 q46.5 -46 82.5 -85 q-9 -33 -55 -33 l-236 0 ZM1376 281 l-47 0 l0 1196 q-15 -7 -33 -7 l-368 0 l170 -36 q-5 -16 -20 -29 q-15 -13 -46 -16 q-64 -73 -155.5 -149 q-91.5 -76 -180.5 -134 q76 3 167 7.5 q91 4.5 188 8.5 q-11 51 -26.5 98 q-15.5 47 -31.5 87 l21 8 q122 -48 187.5 -106 q65.5 -58 86.5 -116 q21 -58 8.5 -105.5 q-12.5 -47.5 -47.5 -74.5 q-35 -27 -81.5 -23.5 q-46.5 3.5 -92.5 48.5 q0 60 -12 125 q-72 -40 -175 -90 q-103 -50 -222 -103 q-22 -37 -54 -53 l-118 281 q0 0 25.5 6.5 q25.5 6.5 39.5 13.5 q36 29 75 90.5 q39 61.5 71.5 133 q32.5 71.5 50.5 128.5 l-185 0 l-16 58 l416 0 l137 178 q0 0 25 -20 q25 -20 63.5 -51 q38.5 -31 80.5 -66 q42 -35 77 -66 q-4 -16 -19 -22 l295 -29 q-3 -15 -14 -27.5 q-11 -12.5 -43 -17.5 l0 -1057 q0 -10 -31 -26.5 q-31 -16.5 -76.5 -29.5 q-45.5 -13 -89.5 -13 ZM1659 1720 l334 -32 q-3 -22 -20.5 -37 q-17.5 -15 -55.5 -21 l0 -1509 q0 -89 -22 -152 q-22 -63 -92.5 -100.5 q-70.5 -37.5 -217.5 -50.5 q-6 63 -16.5 108 q-10.5 45 -36.5 76 q-26 29 -67 50.5 q-41 21.5 -124 35.5 l0 29 q0 0 35 -2.5 q35 -2.5 84 -5 q49 -2.5 92.5 -5 q43.5 -2.5 61.5 -2.5 q26 0 35.5 8.5 q9.5 8.5 9.5 28.5 l0 1581 Z" /><glyph glyph-name="cid10304" unicode="&#x5019;" d="M297 1751 l360 -113 q-14 -46 -82 -43 q-70 -239 -167 -440 l124 -45 q-6 -14 -21 -24 q-15 -10 -44 -15 l0 -1194 q-1 -9 -34 -26 q-33 -17 -82.5 -31.5 q-49.5 -14.5 -100.5 -14.5 l-49 0 l0 1014 q-39 -47 -79.5 -92 q-40.5 -45 -84.5 -86 l-25 14 q63 140 119.5 320 q56.5 180 99.5 379.5 q43 199.5 66 396.5 ZM815 1317 l0 -1104 q0 -10 -32 -27 q-32 -17 -80.5 -31 q-48.5 -14 -96.5 -14 l-47 0 l0 1258 l324 -29 q-3 -20 -17 -33.5 q-14 -13.5 -51 -19.5 ZM1950 438 l-437 0 q48 -101 174 -187.5 q126 -86.5 324 -133.5 l0 -25 q-103 -27 -156 -90.5 q-53 -63.5 -59 -194.5 q-99 65 -164.5 173.5 q-65.5 108.5 -103.5 230.5 q-38 122 -55 227 l-13 0 q-34 -137 -114.5 -252.5 q-80.5 -115.5 -235.5 -209.5 q-155 -94 -412 -166 l-16 28 q173 85 277 179 q104 94 157.5 199 q53.5 105 75.5 222 l-334 0 l-16 58 l358 0 q11 76 13 158 q2 82 4 169 l-68 0 q-116 -164 -268 -264 l-27 14 q49 111 87 263 q38 152 56 309 l-133 0 l-16 57 l543 0 l45 348 l-512 0 l-19 58 l518 0 l101 112 l239 -174 q-20 -22 -71 -30 l-41 -314 l35 0 l116 191 q0 0 36 -36.5 q36 -36.5 83.5 -86.5 q47.5 -50 83.5 -92 q-9 -33 -55 -33 l-875 0 l271 -74 q-14 -45 -80 -45 q-19 -38 -38 -75 q-19 -37 -40 -70 l342 0 l139 178 q0 0 25.5 -20 q25.5 -20 64.5 -51 q39 -31 82.5 -66 q43.5 -35 79.5 -66 q-9 -33 -59 -33 l-357 0 q-3 -89 -10 -170.5 q-7 -81.5 -20 -156.5 l129 0 l143 184 q0 0 26.5 -20 q26.5 -20 67.5 -52 q41 -32 86 -68.5 q45 -36.5 82 -68.5 q-9 -33 -59 -33 Z" /><glyph glyph-name="cid10641" unicode="&#x50cf;" d="M512 1212 l82 -30 q-6 -14 -20.5 -24.5 q-14.5 -10.5 -45.5 -14.5 l0 -1258 q-1 -9 -35 -28 q-34 -19 -86 -35.5 q-52 -16.5 -106 -16.5 l-53 0 l0 1029 q-91 -104 -195 -189 l-22 14 q69 136 137.5 316 q68.5 180 125.5 381.5 q57 201.5 93 398.5 l387 -113 q-13 -43 -84 -43 q-80 -208 -178 -387 ZM1618 893 l-307 0 q-46 -52 -99 -98 q63 -50 112.5 -109.5 q49.5 -59.5 86.5 -122.5 q68 59 136 129.5 q68 70.5 116 128.5 l-45 0 l0 72 ZM1171 70 q17 0 30 3 q13 3 20 15 q20 44 26 139 q-64 -41 -136 -78.5 q-72 -37.5 -150 -68.5 q55 -5 118 -7.5 q63 -2.5 92 -2.5 ZM1004 950 l79 0 q37 65 66 134.5 q29 69.5 49 146.5 l-194 0 l0 -281 ZM1339 1479 l-223 0 q-35 -42 -74.5 -83 q-39.5 -41 -80.5 -81 l71 -27 l238 0 q18 43 37 94.5 q19 51.5 32 96.5 ZM1618 1231 l-115 0 q-54 -153 -147 -281 l262 0 l0 281 ZM1761 834 l215 -158 q-22 -29 -80 -10 q-50 -27 -135.5 -58 q-85.5 -31 -183.5 -59 q69 -146 189 -228.5 q120 -82.5 255 -132.5 l-2 -22 q-151 -38 -202 -242 q-122 112 -188 254 q-66 142 -97 359 q-23 -8 -47.5 -13.5 q-24.5 -5.5 -48.5 -11.5 q55 -116 71.5 -233.5 q16.5 -117.5 1 -216 q-15.5 -98.5 -56.5 -156.5 q-38 -54 -121.5 -72 q-83.5 -18 -202.5 -18 q0 58 -11.5 99 q-11.5 41 -33.5 69 q-18 21 -58 41 q-40 20 -95 36 l0 7 q-85 -33 -174.5 -56.5 q-89.5 -23.5 -180.5 -36.5 l-8 25 q194 78 368 211.5 q174 133.5 294 284.5 q-128 -74 -288 -135 q-160 -61 -318 -95 l-13 25 q109 47 216 120.5 q107 73.5 198.5 159 q91.5 85.5 153.5 170.5 l-9 19 q-205 -160 -534 -254 l-14 26 q277 137 426 361 l-43 0 l0 -14 q0 -13 -57.5 -44.5 q-57.5 -31.5 -160.5 -31.5 l-47 0 l0 338 q-37 -25 -75 -47.5 q-38 -22.5 -76 -40.5 l-15 14 q74 81 144.5 196 q70.5 115 126.5 242.5 q56 127.5 88 245.5 l373 -102 q-7 -17 -23 -23.5 q-16 -6.5 -57 -3.5 q-14 -21 -30 -42.5 q-16 -21.5 -32 -43.5 l170 0 l137 141 l244 -209 q-20 -22 -80 -28 q-53 -37 -120 -77.5 q-67 -40.5 -138 -74.5 l223 0 l117 123 l238 -178 q-15 -23 -64 -35 l0 -315 q-1 -8 -40.5 -23.5 q-39.5 -15.5 -88.5 -25.5 Z" /><glyph glyph-name="cid10936" unicode="&#x5173;" d="M438 1726 l15 11 q171 -24 268.5 -77.5 q97.5 -53.5 136 -118.5 q38.5 -65 30.5 -125 q-8 -60 -49 -100 q-41 -40 -103 -43 q-62 -3 -130 48 q-12 109 -60.5 216.5 q-48.5 107.5 -107.5 188.5 ZM1927 678 l-774 0 q79 -152 211 -263.5 q132 -111.5 296.5 -183.5 q164.5 -72 340.5 -104 l-4 -25 q-88 -24 -152 -99.5 q-64 -75.5 -90 -190.5 q-173 77 -295.5 192 q-122.5 115 -204 276 q-81.5 161 -133.5 379 q-20 -121 -78.5 -244 q-58.5 -123 -177 -237 q-118.5 -114 -317 -209 q-198.5 -95 -498.5 -159 l-6 16 q270 125 426.5 264.5 q156.5 139.5 230.5 287.5 q74 148 97 300 l-717 0 l-16 57 l739 0 q6 74 6 146 l0 305 l-598 0 l-16 57 l936 0 q26 77 50.5 167.5 q24.5 90.5 43.5 179 q19 88.5 30 161.5 l396 -117 q-6 -18 -24.5 -29 q-18.5 -11 -53.5 -10 q-68 -76 -170.5 -173 q-102.5 -97 -214.5 -179 l237 0 l158 195 q0 0 29 -21.5 q29 -21.5 74 -55 q45 -33.5 94 -71.5 q49 -38 90 -71 q-9 -33 -62 -33 l-671 0 l0 -303 q0 -71 -6 -148 l393 0 l164 205 q0 0 30 -22.5 q30 -22.5 77 -57.5 q47 -35 98 -75 q51 -40 94 -74 q-9 -33 -62 -33 Z" /><glyph glyph-name="cid10942" unicode="&#x5177;" d="M1124 250 l9 22 q261 -18 423 -61.5 q162 -43.5 245 -99.5 q83 -56 103.5 -113 q20.5 -57 -4 -103.5 q-24.5 -46.5 -75.5 -72 q-51 -25.5 -112.5 -18.5 q-61.5 7 -113.5 59 q-55 83 -168 192 q-113 109 -307 195 ZM752 639 l0 -252 l589 0 l0 252 l-589 0 ZM1341 1540 l-589 0 l0 -252 l589 0 l0 252 ZM1341 938 l-589 0 l0 -242 l589 0 l0 242 ZM1341 995 l0 236 l-589 0 l0 -236 l589 0 ZM1642 440 l119 181 q0 0 28 -26 q28 -26 70.5 -66 q42.5 -40 88 -84.5 q45.5 -44.5 82.5 -82.5 q-9 -32 -60 -32 l-1333 0 l342 -164 q-11 -20 -39.5 -30 q-28.5 -10 -83.5 -5 q-129 -103 -336 -188.5 q-207 -85.5 -442 -135.5 l-8 19 q113 63 219 149.5 q106 86.5 191 179.5 q85 93 136 175 l-548 0 l-17 57 l406 0 l0 1329 l323 -119 l541 0 l141 150 l262 -211 q-10 -12 -29.5 -24.5 q-19.5 -12.5 -52.5 -18.5 l0 -1053 Z" /><glyph glyph-name="cid10969" unicode="&#x518d;" d="M1153 475 l279 0 l0 326 l-279 0 l0 -326 ZM590 801 l0 -326 l262 0 l0 326 l-262 0 ZM852 1167 l-262 0 l0 -309 l262 0 l0 309 ZM1432 1167 l-279 0 l0 -309 l279 0 l0 309 ZM1733 518 l88 131 q0 0 35.5 -33 q35.5 -33 84 -79.5 q48.5 -46.5 84.5 -85.5 q-8 -33 -55 -33 l-237 0 l0 -273 q0 -97 -25 -166 q-25 -69 -104 -110 q-79 -41 -242 -55 q-6 73 -17 126 q-11 53 -38 87 q-26 33 -66 58 q-40 25 -125 40 l0 27 q0 0 35 -2.5 q35 -2.5 83.5 -5 q48.5 -2.5 92.5 -5 q44 -2.5 62 -2.5 q26 0 34.5 11.5 q8.5 11.5 8.5 31.5 l0 238 l-842 0 l0 -522 q0 -11 -29 -32 q-29 -21 -83 -39 q-54 -18 -130 -18 l-55 0 l0 611 l-234 0 l-16 57 l250 0 l0 868 l325 -118 l234 0 l0 266 l-719 0 l-16 57 l1374 0 l158 197 q0 0 29 -21.5 q29 -21.5 74.5 -55.5 q45.5 -34 95.5 -72 q50 -38 91 -72 q-4 -17 -20.5 -25 q-16.5 -8 -38.5 -8 l-727 0 l0 -266 l256 0 l135 153 l281 -215 q-13 -15 -35 -29 q-22 -14 -57 -22 l0 -594 Z" /><glyph glyph-name="cid11139" unicode="&#x51fa;" d="M1563 696 l352 -30 q-2 -19 -15.5 -32 q-13.5 -13 -50.5 -20 l0 -723 q0 -9 -36 -24.5 q-36 -15.5 -90.5 -28 q-54.5 -12.5 -108.5 -12.5 l-51 0 l0 178 l-1069 0 l-82 -139 l-285 160 q14 15 31.5 33.5 q17.5 18.5 36.5 33.5 l0 606 l356 -34 q-3 -17 -19 -29 q-16 -12 -53 -19 l0 -555 l381 0 l0 822 l-272 0 l-82 -138 l-279 158 q13 16 31 34 q18 18 37 32 l0 571 l350 -35 q-3 -17 -19 -29 q-16 -12 -53 -18 l0 -518 l287 0 l0 795 l375 -35 q-3 -23 -17.5 -38 q-14.5 -15 -56.5 -22 l0 -700 l303 0 l0 598 l353 -31 q-2 -18 -15.5 -31.5 q-13.5 -13.5 -50.5 -19.5 l0 -633 q0 -8 -36 -22.5 q-36 -14.5 -90.5 -26.5 q-54.5 -12 -108.5 -12 l-52 0 l0 121 l-303 0 l0 -822 l402 0 l0 635 Z" /><glyph glyph-name="cid11140" unicode="&#x51fb;" d="M1554 887 l166 211 q0 0 30.5 -23 q30.5 -23 77 -59.5 q46.5 -36.5 98 -77 q51.5 -40.5 93.5 -76.5 q-3 -17 -19.5 -25 q-16.5 -8 -39.5 -8 l-782 0 l0 -788 l331 0 l0 657 l375 -32 q-3 -20 -17.5 -36 q-14.5 -16 -56.5 -22 l0 -733 q0 -9 -37.5 -24.5 q-37.5 -15.5 -95 -28 q-57.5 -12.5 -116.5 -12.5 l-52 0 l0 174 l-968 0 l-86 -125 l-293 143 q33 40 78 72 l0 626 l366 -34 q-3 -23 -18.5 -38.5 q-15.5 -15.5 -57.5 -21.5 l0 -565 l344 0 l0 788 l-811 0 l-16 58 l827 0 l0 428 l-651 0 l-16 57 l667 0 l0 371 l379 -35 q-3 -23 -17.5 -38 q-14.5 -15 -57.5 -21 l0 -277 l221 0 l166 211 q0 0 30 -23 q30 -23 77 -59.5 q47 -36.5 98 -77 q51 -40.5 94 -75.5 q-5 -17 -21.5 -25 q-16.5 -8 -38.5 -8 l-626 0 l0 -428 l376 0 Z" /><glyph glyph-name="cid11157" unicode="&#x5206;" d="M641 1735 l379 -148 q-6 -15 -23 -26 q-17 -11 -55 -11 q-81 -150 -204.5 -303.5 q-123.5 -153.5 -293 -285.5 q-169.5 -132 -387.5 -218 l-14 19 q155 127 274 294.5 q119 167.5 200.5 344.5 q81.5 177 123.5 334 ZM1290 879 l152 145 l250 -215 q-13 -14 -33 -24 q-20 -10 -53 -15 q-14 -265 -35.5 -443.5 q-21.5 -178.5 -59 -284 q-37.5 -105.5 -98.5 -153.5 q-58 -46 -130.5 -67 q-72.5 -21 -188.5 -21 q1 65 -9.5 115.5 q-10.5 50.5 -40.5 81.5 q-67 71 -229 102 l0 23 q53 -4 116.5 -8 q63.5 -4 117.5 -6.5 q54 -2.5 79 -2.5 q44 0 70 21 q45 35 71 214 q26 179 42 480 l-305 0 q-17 -136 -57.5 -275 q-40.5 -139 -133 -271.5 q-92.5 -132.5 -260.5 -253 q-168 -120.5 -438 -220.5 l-19 27 q195 124 310 252 q115 128 171.5 255.5 q56.5 127.5 76 250 q19.5 122.5 24.5 235.5 l-324 0 l-18 58 l952 0 ZM1206 1767 l176 -59 q-24 -49 -84 -121 q73 -128 190 -236 q117 -108 256 -191 q139 -83 279 -136 l-4 -25 q-64 -29 -127.5 -106 q-63.5 -77 -89.5 -162 q-238 155 -391 401 q-153 246 -225 625 l20 10 Z" /><glyph glyph-name="cid11184" unicode="&#x521a;" d="M655 1425 l273 -59 l0 168 l-533 0 l0 -225 l21 10 q63 -63 115.5 -124 q52.5 -61 97.5 -120 q10 94 16.5 182.5 q6.5 88.5 9.5 167.5 ZM395 1294 l0 -1065 q66 126 113 275.5 q47 149.5 78 304.5 q-36 126 -82.5 251 q-46.5 125 -108.5 234 ZM907 1591 l117 135 l244 -190 q-24 -31 -84 -45 l0 -1389 q0 -88 -21 -149.5 q-21 -61.5 -87.5 -98 q-66.5 -36.5 -205.5 -49.5 q-4 63 -13.5 109 q-9.5 46 -31.5 74 q-21 29 -56 50 q-35 21 -105 34 l0 28 q0 0 28.5 -1.5 q28.5 -1.5 68.5 -4 q40 -2.5 75.5 -4.5 q35.5 -2 50.5 -2 q24 0 32.5 10.5 q8.5 10.5 8.5 30.5 l0 1188 q-16 -3 -37 -6 q-20 -105 -47.5 -225 q-27.5 -120 -69.5 -244 q82 -162 101 -287 q19 -125 -4.5 -201 q-23.5 -76 -71.5 -90.5 q-48 -14.5 -101 45.5 q-9 51 -21 110 q-12 59 -26 124 q-47 -94 -106 -180.5 q-59 -86.5 -131 -159.5 l-19 14 l0 -311 q0 -17 -30 -40 q-30 -23 -79 -41 q-49 -18 -108 -18 l-43 0 l0 1897 l273 -113 l499 0 ZM1534 1358 l0 -987 q0 -11 -32.5 -27 q-32.5 -16 -81.5 -28.5 q-49 -12.5 -99 -12.5 l-45 0 l0 1143 l334 -31 q-3 -21 -19 -36 q-16 -15 -57 -21 ZM1636 1751 l359 -33 q-3 -48 -74 -59 l0 -1540 q0 -96 -23.5 -163.5 q-23.5 -67.5 -99 -107 q-75.5 -39.5 -229.5 -53.5 q-6 69 -16.5 119 q-10.5 50 -36.5 82 q-25 34 -64 56.5 q-39 22.5 -121 37.5 l0 27 q0 0 33.5 -2 q33.5 -2 80 -4.5 q46.5 -2.5 89 -4.5 q42.5 -2 59.5 -2 q43 0 43 35 l0 1612 Z" /><glyph glyph-name="cid11214" unicode="&#x522e;" d="M786 553 l-327 0 l0 -471 l327 0 l0 471 ZM1481 1491 l0 -1112 q0 -10 -33.5 -28 q-33.5 -18 -84.5 -32 q-51 -14 -103 -14 l-50 0 l0 715 q-17 -10 -41 -10 l-403 0 l0 -400 l129 144 l268 -203 q-9 -12 -28 -25.5 q-19 -13.5 -52 -19.5 l0 -572 q-1 -8 -42 -23.5 q-41 -15.5 -98 -28.5 q-57 -13 -105 -13 l-52 0 l0 156 l-327 0 l0 -119 q0 -15 -37 -36.5 q-37 -21.5 -94.5 -38.5 q-57.5 -17 -118.5 -17 l-43 0 l0 913 l301 -117 l8 0 l0 400 l-407 0 l-17 57 l424 0 l0 311 q-106 -9 -213.5 -15 q-107.5 -6 -210.5 -7 l-4 20 q108 34 223.5 80 q115.5 46 225.5 98 q110 52 204 104 q94 52 158 99 l324 -293 q-20 -17 -59 -18.5 q-39 -1.5 -97 18.5 q-57 -14 -122.5 -27 q-65.5 -13 -137.5 -24 l0 -346 l84 0 l135 184 q0 0 37.5 -31 q37.5 -31 90 -76 q52.5 -45 97.5 -87 l0 524 l346 -31 q-3 -21 -18.5 -37 q-15.5 -16 -56.5 -22 ZM1624 1724 l371 -34 q-3 -23 -20.5 -37.5 q-17.5 -14.5 -55.5 -20.5 l0 -1482 q0 -100 -24.5 -169 q-24.5 -69 -103 -110 q-78.5 -41 -239.5 -55 q-6 72 -16.5 123.5 q-10.5 51.5 -38.5 85.5 q-26 33 -67 57 q-41 24 -125 41 l0 27 q0 0 35 -2.5 q35 -2.5 84.5 -5.5 q49.5 -3 94 -5 q44.5 -2 62.5 -2 q43 0 43 35 l0 1554 Z" /><glyph glyph-name="cid11218" unicode="&#x5230;" d="M819 1559 l137 190 q0 0 25.5 -21 q25.5 -21 64.5 -54 q39 -33 81.5 -70.5 q42.5 -37.5 76.5 -69.5 q-9 -33 -59 -33 l-660 0 l314 -69 q-11 -40 -66 -46 q-80 -78 -194.5 -159 q-114.5 -81 -223.5 -137 q108 3 255 9.5 q147 6.5 309 14.5 q-47 131 -127 227 l18 13 q160 -37 251 -97 q91 -60 127 -128 q36 -68 29 -129 q-7 -61 -44.5 -100 q-37.5 -39 -93.5 -41 q-56 -2 -117 48 q-2 36 -7 72 q-5 36 -16 72 q-72 -28 -163 -62.5 q-91 -34.5 -197 -70.5 l284 -23 q-1 -20 -14 -33.5 q-13 -13.5 -51 -19.5 l0 -228 l45 0 l133 193 q0 0 24.5 -21.5 q24.5 -21.5 62 -55 q37.5 -33.5 78 -71 q40.5 -37.5 73.5 -69.5 q-9 -33 -58 -33 l-358 0 l0 -285 q104 14 213.5 28 q109.5 14 220.5 30 l4 -23 q-138 -75 -363 -174.5 q-225 -99.5 -565 -228.5 q-22 -42 -63 -51 l-135 344 q135 9 401 41 l0 319 l-356 0 l-17 57 l373 0 l0 279 q-43 -14 -88.5 -29 q-45.5 -15 -91.5 -30 q-25 -34 -55 -50 l-130 314 q0 0 28.5 5.5 q28.5 5.5 45.5 14.5 q33 22 70 67.5 q37 45.5 72 102 q35 56.5 62.5 113 q27.5 56.5 41.5 100.5 l-324 0 l-16 58 l733 0 ZM1497 1497 l0 -1153 q0 -10 -33.5 -27 q-33.5 -17 -83.5 -31 q-50 -14 -100 -14 l-49 0 l0 1313 l340 -31 q-3 -21 -17.5 -36 q-14.5 -15 -56.5 -21 ZM1638 1733 l355 -33 q-4 -48 -74 -60 l0 -1519 q0 -95 -23.5 -162 q-23.5 -67 -99.5 -106.5 q-76 -39.5 -231 -53.5 q-6 68 -18 117.5 q-12 49.5 -38 81.5 q-27 32 -68.5 55.5 q-41.5 23.5 -125.5 38.5 l0 27 q0 0 36 -2.5 q36 -2.5 86 -5 q50 -2.5 95 -5 q45 -2.5 63 -2.5 q43 0 43 37 l0 1592 Z" /><glyph glyph-name="cid11260" unicode="&#x524d;" d="M471 426 l209 0 l0 276 l-209 0 l0 -276 ZM680 1006 l-209 0 l0 -246 l209 0 l0 246 ZM659 1063 l123 139 l256 -198 q-9 -13 -29 -25 q-20 -12 -53 -18 l0 -865 q0 -88 -20.5 -149.5 q-20.5 -61.5 -86 -98 q-65.5 -36.5 -200.5 -49.5 q-1 65 -7 111 q-6 46 -21 76 q-14 29 -38.5 51 q-24.5 22 -78.5 33 l0 26 q0 0 28 -2 q28 -2 62.5 -4 q34.5 -2 52.5 -2 q20 0 26.5 9 q6.5 9 6.5 26 l0 246 l-209 0 l0 -465 q0 -15 -33 -37 q-33 -22 -86.5 -39.5 q-53.5 -17.5 -113.5 -17.5 l-43 0 l0 1368 l284 -115 l180 0 ZM1395 1032 l0 -758 q0 -9 -33.5 -23.5 q-33.5 -14.5 -84 -26 q-50.5 -11.5 -101.5 -11.5 l-48 0 l0 907 l342 -30 q-3 -20 -17.5 -36 q-14.5 -16 -57.5 -22 ZM1548 131 l0 1059 l353 -31 q-7 -47 -72 -55 l0 -987 q0 -93 -23.5 -158 q-23.5 -65 -99 -103 q-75.5 -38 -229.5 -51 q-5 65 -16.5 112 q-11.5 47 -37.5 79 q-26 29 -66 52 q-40 23 -124 38 l0 25 q0 0 35.5 -2 q35.5 -2 85 -4.5 q49.5 -2.5 93 -4.5 q43.5 -2 60.5 -2 q41 0 41 33 ZM1559 1337 l157 205 q0 0 29.5 -22.5 q29.5 -22.5 74.5 -57.5 q45 -35 94 -75 q49 -40 89 -74 q-9 -33 -59 -33 l-1876 0 l-17 57 l608 0 q-30 10 -61 31 q-15 98 -65.5 193.5 q-50.5 95.5 -108.5 162.5 l14 11 q157 -6 252.5 -43 q95.5 -37 140 -89 q44.5 -52 47.5 -106.5 q3 -54.5 -25.5 -98 q-28.5 -43.5 -78.5 -61.5 l361 0 q35 94 69 210.5 q34 116.5 53 205.5 l402 -96 q-10 -43 -78 -43 q-69 -60 -175 -136 q-106 -76 -210 -141 l363 0 Z" /><glyph glyph-name="cid11784" unicode="&#x5385;" d="M1526 1137 l151 209 q0 0 27.5 -23.5 q27.5 -23.5 70 -59.5 q42.5 -36 88.5 -76 q46 -40 83 -75 q-3 -17 -19.5 -25 q-16.5 -8 -38.5 -8 l-479 0 l0 -913 q0 -96 -26.5 -169.5 q-26.5 -73.5 -108 -118.5 q-81.5 -45 -246.5 -56 q-3 72 -14 124 q-11 52 -37 85 q-26 30 -67 55.5 q-41 25.5 -132 40.5 l0 23 q0 0 36 -2 q36 -2 86 -4.5 q50 -2.5 95 -4.5 q45 -2 64 -2 q41 0 41 37 l0 905 l-510 0 l-17 58 l953 0 ZM1595 1567 l150 194 q0 0 27 -21.5 q27 -21.5 69 -55 q42 -33.5 87.5 -71.5 q45.5 -38 82.5 -71 q-9 -33 -59 -33 l-1389 0 l0 -473 q0 -116 -7.5 -245.5 q-7.5 -129.5 -35 -263 q-27.5 -133.5 -84.5 -263 q-57 -129.5 -155.5 -246.5 q-98.5 -117 -249.5 -213 l-17 13 q114 180 166 386 q52 206 66 419 q14 213 14 413 l0 672 l346 -141 l989 0 Z" /><glyph glyph-name="cid11868" unicode="&#x53bb;" d="M1511 854 l170 219 q0 0 31.5 -23.5 q31.5 -23.5 80.5 -61 q49 -37.5 102 -80 q53 -42.5 96 -79.5 q-9 -32 -62 -32 l-1014 0 l316 -115 q-8 -17 -27 -28.5 q-19 -11.5 -51 -10.5 q-74 -79 -183 -164.5 q-109 -85.5 -233.5 -165 q-124.5 -79.5 -242.5 -139.5 q184 6 436 16.5 q252 10.5 534 24.5 q-50 86 -109 165.5 q-59 79.5 -122 145.5 l16 13 q203 -45 337 -115.5 q134 -70.5 209.5 -152.5 q75.5 -82 101.5 -162.5 q26 -80.5 12.5 -147.5 q-13.5 -67 -57 -107 q-43.5 -40 -107.5 -41 q-64 -1 -137 52 q-17 70 -44 140.5 q-27 70.5 -63 139.5 q-184 -63 -457.5 -138.5 q-273.5 -75.5 -631.5 -160.5 q-23 -25 -47 -34 l-146 360 q0 0 37.5 8 q37.5 8 58.5 21 q63 31 136 99.5 q73 68.5 144.5 155.5 q71.5 87 130.5 176.5 q59 89.5 93 164.5 l-723 0 l-16 57 l770 0 l0 406 l-612 0 l-17 57 l629 0 l0 436 l399 -31 q-3 -23 -17.5 -38 q-14.5 -15 -57.5 -21 l0 -346 l229 0 l168 215 q0 0 30.5 -23.5 q30.5 -23.5 77.5 -60.5 q47 -37 99 -78.5 q52 -41.5 94 -77.5 q-9 -32 -62 -32 l-636 0 l0 -406 l337 0 Z" /><glyph glyph-name="cid11893" unicode="&#x53cb;" d="M877 928 l-5 -17 q45 -135 113.5 -243 q68.5 -108 157.5 -193 q66 105 115.5 218 q49.5 113 82.5 235 l-464 0 ZM1485 1137 l252 -230 q-11 -18 -29.5 -25 q-18.5 -7 -58.5 -12 q-54 -150 -131.5 -287 q-77.5 -137 -182.5 -253 q151 -92 328.5 -148.5 q177.5 -56.5 368.5 -91.5 l-2 -24 q-99 -20 -165.5 -87.5 q-66.5 -67.5 -99.5 -173.5 q-179 66 -328 153.5 q-149 87.5 -266 213.5 q-152 -123 -352.5 -216 q-200.5 -93 -458.5 -149 l-12 23 q221 91 396 220.5 q175 129.5 303 289.5 q-63 101 -112 225.5 q-49 124.5 -83 276.5 q-60 -193 -159 -373 q-99 -180 -250 -336 q-151 -156 -369 -274 l-23 16 q199 183 320 411 q121 228 183.5 480 q62.5 252 86.5 508 l-537 0 l-16 57 l557 0 q9 108 13 212.5 q4 104.5 4 207.5 l411 -27 q-3 -21 -18 -36 q-15 -15 -60 -23 q-7 -81 -15.5 -165 q-8.5 -84 -21.5 -169 l551 0 l164 209 q0 0 30.5 -22.5 q30.5 -22.5 77 -58.5 q46.5 -36 97.5 -76.5 q51 -40.5 92 -75.5 q-9 -33 -61 -33 l-959 0 q-10 -72 -25 -144.5 q-15 -72.5 -32 -144.5 l434 0 l158 152 Z" /><glyph glyph-name="cid11938" unicode="&#x53ea;" d="M1421 1479 l-780 0 l0 -736 l780 0 l0 736 ZM641 686 l0 -70 q0 -15 -39.5 -39 q-39.5 -24 -101 -42.5 q-61.5 -18.5 -125.5 -18.5 l-47 0 l0 1147 l331 -127 l742 0 l137 152 l279 -213 q-10 -13 -29 -25.5 q-19 -12.5 -51 -19.5 l0 -803 q-1 -9 -45 -26.5 q-44 -17.5 -104.5 -32.5 q-60.5 -15 -112.5 -15 l-54 0 l0 133 l-780 0 ZM39 -201 l-12 19 q135 96 256 222.5 q121 126.5 216 258 q95 131.5 150 244.5 l363 -189 q-8 -15 -25.5 -24 q-17.5 -9 -52.5 -6 q-96 -102 -234.5 -203 q-138.5 -101 -306.5 -185 q-168 -84 -354 -137 ZM1163 471 l17 14 q247 -33 404 -103.5 q157 -70.5 238 -157 q81 -86.5 100.5 -169.5 q19.5 -83 -9.5 -143 q-29 -60 -92.5 -78.5 q-63.5 -18.5 -147.5 25.5 q-50 110 -132 222.5 q-82 112.5 -180 213 q-98 100.5 -198 176.5 Z" /><glyph glyph-name="cid11940" unicode="&#x53eb;" d="M399 535 l183 0 l0 888 l-183 0 l0 -888 ZM692 1624 l258 -203 q-9 -12 -29 -24.5 q-20 -12.5 -53 -18.5 l0 -989 q-1 -10 -39 -31 q-38 -21 -93 -39 q-55 -18 -107 -18 l-47 0 l0 176 l-183 0 l0 -213 q0 -15 -32.5 -37.5 q-32.5 -22.5 -85 -39.5 q-52.5 -17 -111.5 -17 l-43 0 l0 1423 l279 -112 l155 0 l131 143 ZM1540 1735 l373 -35 q-3 -23 -18 -38 q-15 -15 -58 -22 l0 -1746 q0 -13 -36 -33 q-36 -20 -90.5 -35.5 q-54.5 -15.5 -111.5 -15.5 l-59 0 l0 753 q-69 -55 -157.5 -122 q-88.5 -67 -194.5 -138 q-24 -36 -53 -55 l-185 278 q48 36 60 59.5 q12 23.5 12 61.5 l0 922 l348 -33 q-3 -20 -16 -32.5 q-13 -12.5 -45 -18.5 l0 -881 q53 14 111.5 28 q58.5 14 119.5 30 l0 1073 Z" /><glyph glyph-name="cid11946" unicode="&#x53ef;" d="M563 557 l275 0 l0 555 l-275 0 l0 -555 ZM1124 1067 l0 -676 q-1 -8 -40.5 -23.5 q-39.5 -15.5 -94.5 -28.5 q-55 -13 -102 -13 l-49 0 l0 174 l-275 0 l0 -170 q0 -14 -34.5 -35 q-34.5 -21 -89.5 -38 q-55 -17 -115 -17 l-41 0 l0 1044 l290 -115 l244 0 l127 140 l262 -199 q-10 -12 -29.5 -24.5 q-19.5 -12.5 -52.5 -18.5 ZM1546 1567 l164 207 q0 0 30 -22.5 q30 -22.5 77 -58 q47 -35.5 98.5 -76 q51.5 -40.5 93.5 -75.5 q-9 -33 -61 -33 l-244 0 l0 -1351 q0 -98 -30 -173.5 q-30 -75.5 -120.5 -122 q-90.5 -46.5 -271.5 -57.5 q-5 73 -23.5 127 q-18.5 54 -60.5 86 q-40 33 -98 58 q-58 25 -180 45 l0 24 q0 0 36.5 -2 q36.5 -2 93.5 -5 q57 -3 118 -6 q61 -3 110.5 -5 q49.5 -2 71.5 -2 q51 0 51 45 l0 1339 l-1338 0 l-16 58 l1499 0 Z" /><glyph glyph-name="cid11948" unicode="&#x53f0;" d="M682 61 l698 0 l0 533 l-698 0 l0 -533 ZM1356 651 l141 160 l293 -225 q-11 -14 -33.5 -29 q-22.5 -15 -60.5 -22 l0 -646 q-2 -7 -46 -22.5 q-44 -15.5 -104.5 -29 q-60.5 -13.5 -111.5 -13.5 l-54 0 l0 180 l-698 0 l0 -92 q0 -15 -40 -39 q-40 -24 -102 -42.5 q-62 -18.5 -126 -18.5 l-45 0 l0 964 l329 -125 l658 0 ZM1241 1432 l16 14 q228 -43 369.5 -117.5 q141.5 -74.5 212.5 -160.5 q71 -86 84 -166.5 q13 -80.5 -18 -136.5 q-31 -56 -93 -70.5 q-62 -14.5 -141 32.5 q-20 56 -49.5 111.5 q-29.5 55.5 -62.5 112.5 q-219 -53 -532.5 -113.5 q-313.5 -60.5 -707.5 -126.5 q-35 -38 -77 -51 l-86 336 q0 0 35.5 8 q35.5 8 58.5 20 q73 34 159.5 108.5 q86.5 74.5 170 168.5 q83.5 94 149.5 189 q66 95 98 169 l404 -151 q-6 -17 -25.5 -29 q-19.5 -12 -54.5 -10 q-80 -80 -198.5 -166.5 q-118.5 -86.5 -254 -166.5 q-135.5 -80 -266.5 -140 q134 0 307.5 2 q173.5 2 371.5 5.5 q198 3.5 407 8.5 q-63 89 -134.5 171.5 q-71.5 82.5 -142.5 148.5 Z" /><glyph glyph-name="cid11984" unicode="&#x540d;" d="M924 51 l579 0 l0 537 l-579 0 l0 -537 ZM1350 1413 l-459 0 q-37 -44 -75.5 -88.5 q-38.5 -44.5 -80.5 -87.5 q119 -25 185 -67.5 q66 -42.5 89 -92.5 q23 -50 13 -96 q100 101 183 209.5 q83 108.5 145 222.5 ZM1620 799 l285 -217 q-11 -14 -32 -28 q-21 -14 -56 -22 l0 -616 q-1 -9 -44 -29 q-43 -20 -103 -36.5 q-60 -16.5 -114 -16.5 l-53 0 l0 160 l-579 0 l0 -107 q0 -10 -30 -31 q-30 -21 -85.5 -39 q-55.5 -18 -134.5 -18 l-58 0 l0 682 q-129 -49 -267.5 -88.5 q-138.5 -39.5 -289.5 -66.5 l-10 22 q235 95 451.5 226.5 q216.5 131.5 396.5 289.5 q-37 -7 -79.5 3.5 q-42.5 10.5 -84.5 43.5 q-6 66 -25.5 130.5 q-19.5 64.5 -45.5 121.5 q-130 -123 -276 -228 q-146 -105 -298 -175 l-14 16 q97 84 193.5 199 q96.5 115 184 247.5 q87.5 132.5 158 270.5 q70.5 138 115.5 268 l401 -108 q-7 -17 -24 -25.5 q-17 -8.5 -62 -5.5 q-23 -38 -49.5 -75.5 q-26.5 -37.5 -54.5 -76.5 l410 0 l186 168 l274 -262 q-12 -20 -32.5 -28 q-20.5 -8 -65.5 -11 q-132 -207 -318.5 -382 q-186.5 -175 -424.5 -310 l516 0 l139 154 Z" /><glyph glyph-name="cid11987" unicode="&#x5410;" d="M406 535 l143 0 l0 845 l-143 0 l0 -845 ZM1587 -10 l158 209 q0 0 29 -23 q29 -23 73.5 -59 q44.5 -36 93.5 -76 q49 -40 89 -76 q-5 -17 -21.5 -25 q-16.5 -8 -38.5 -8 l-1462 0 l-16 58 l653 0 l0 928 l-305 0 l0 -556 q-1 -10 -39.5 -31 q-38.5 -21 -94.5 -39 q-56 -18 -108 -18 l-49 0 l0 203 l-143 0 l0 -237 q0 -16 -33.5 -38.5 q-33.5 -22.5 -88 -40.5 q-54.5 -18 -116.5 -18 l-43 0 l0 1411 l289 -116 l114 0 l131 143 l263 -203 q-11 -12 -30.5 -24.5 q-19.5 -12.5 -51.5 -20.5 l0 -358 l305 0 l0 731 l375 -35 q-3 -20 -16.5 -33.5 q-13.5 -13.5 -51.5 -19.5 l0 -643 l117 0 l149 201 q0 0 28 -22.5 q28 -22.5 71 -57 q43 -34.5 89.5 -73.5 q46.5 -39 84.5 -73 q-9 -32 -60 -32 l-479 0 l0 -928 l135 0 Z" /><glyph glyph-name="cid11996" unicode="&#x5417;" d="M375 397 l131 0 l0 1051 l-131 0 l0 -1051 ZM606 1638 l242 -190 q-11 -12 -31.5 -23.5 q-20.5 -11.5 -52.5 -19.5 l0 -1190 q-1 -11 -35 -32 q-34 -21 -84 -38.5 q-50 -17.5 -98 -17.5 l-41 0 l0 213 l-131 0 l0 -246 q0 -15 -29.5 -36.5 q-29.5 -21.5 -77.5 -37.5 q-48 -16 -104 -16 l-41 0 l0 1610 l260 -109 l102 0 l121 133 ZM1317 410 l117 176 q0 0 36 -33.5 q36 -33.5 84.5 -80.5 q48.5 -47 83.5 -87 q-3 -17 -18 -25 q-15 -8 -35 -8 l-774 0 l-16 58 l522 0 ZM1808 870 l230 -192 q-21 -27 -84 -39 q-16 -327 -52 -504.5 q-36 -177.5 -116 -238.5 q-51 -40 -117.5 -59 q-66.5 -19 -171.5 -19 q0 57 -9 101.5 q-9 44.5 -38 72.5 q-31 29 -90.5 52.5 q-59.5 23.5 -132.5 37.5 l2 24 q50 -4 112 -7.5 q62 -3.5 115 -6 q53 -2.5 76 -2.5 q46 0 70 19 q36 30 57.5 179 q21.5 149 34.5 396 l-533 0 l-92 -117 l-246 133 q27 27 64 52 q11 73 22.5 169.5 q11.5 96.5 20.5 197.5 q9 101 14.5 188 q5.5 87 5.5 141 l338 -59 q-4 -19 -20.5 -34.5 q-16.5 -15.5 -55.5 -17.5 q-6 -75 -15.5 -182 q-9.5 -107 -21 -217.5 q-11.5 -110.5 -22.5 -196.5 l260 0 q18 133 32 282 q14 149 25 291 q11 142 17 255 l-633 0 l-18 57 l634 0 l103 131 l258 -192 q-11 -13 -31.5 -24 q-20.5 -11 -52.5 -17 q-5 -73 -12.5 -170 q-7.5 -97 -17 -204 q-9.5 -107 -20.5 -212 q-11 -105 -22 -195 l133 127 Z" /><glyph glyph-name="cid12030" unicode="&#x542c;" d="M530 1427 l-133 0 l0 -804 l133 0 l0 804 ZM530 565 l-133 0 l0 -270 q0 -15 -33 -38 q-33 -23 -86.5 -40.5 q-53.5 -17.5 -113.5 -17.5 l-43 0 l0 1400 l282 -114 l107 0 l127 139 l256 -199 q-11 -12 -31 -24 q-20 -12 -51 -19 l0 -962 q-2 -9 -40.5 -26.5 q-38.5 -17.5 -92 -31.5 q-53.5 -14 -100.5 -14 l-48 0 l0 217 ZM1620 1001 l145 199 q0 0 26.5 -21.5 q26.5 -21.5 66.5 -56 q40 -34.5 84 -73 q44 -38.5 79 -72.5 q-3 -17 -19 -25 q-16 -8 -38 -8 l-205 0 l0 -1071 q-1 -9 -65.5 -37.5 q-64.5 -28.5 -180.5 -28.5 l-57 0 l0 1137 l-217 0 l0 -4 q0 -118 -11.5 -241.5 q-11.5 -123.5 -49.5 -246 q-38 -122.5 -114 -237 q-76 -114.5 -204 -214 q-128 -99.5 -321 -177.5 l-15 16 q141 116 225.5 246 q84.5 130 127.5 269.5 q43 139.5 57 286 q14 146.5 14 296.5 l0 676 l295 -101 q120 62 231.5 128 q111.5 66 182.5 118 l307 -280 q-21 -17 -60.5 -18.5 q-39.5 -1.5 -93.5 18.5 q-109 -22 -261 -41 q-152 -19 -310 -31 l0 -406 l381 0 Z" /></font>
</defs>
</svg>
